<svg width="21" height="20" viewBox="0 0 21 20" fill="none" xmlns="http://www.w3.org/2000/svg">
<path d="M18.3369 0.882324C18.8754 0.882437 19.3369 1.07468 19.7207 1.4585C20.1044 1.84236 20.2956 2.30343 20.2949 2.84131V14.5942C20.2949 15.1328 20.1038 15.5942 19.7207 15.978C19.3375 16.3618 18.876 16.5538 18.3369 16.5532H4.625L2.37207 18.8052C2.06197 19.1153 1.70682 19.1851 1.30664 19.0142C0.906388 18.8431 0.706378 18.5366 0.707031 18.0952V2.84131C0.707031 2.30263 0.899275 1.84177 1.2832 1.4585C1.66713 1.07522 2.12799 0.882977 2.66602 0.882324H18.3369Z" fill="#5069E7"/>
<path d="M8.76512 4.87688C9.11818 3.84362 10.5458 3.81233 10.9644 4.783L10.9998 4.87747L11.4762 6.27089C11.5854 6.59045 11.7619 6.88288 11.9937 7.12845C12.2255 7.37402 12.5073 7.56701 12.82 7.69442L12.9481 7.74225L14.3415 8.21814C15.3747 8.57122 15.4059 9.99888 14.4359 10.4175L14.3415 10.4529L12.9481 10.9294C12.6285 11.0385 12.3359 11.215 12.0903 11.4468C11.8446 11.6786 11.6515 11.9604 11.5241 12.2732L11.4762 12.4008L11.0004 13.7948C10.6473 14.828 9.21973 14.8593 8.80172 13.8892L8.76512 13.7948L8.28925 12.4014C8.18014 12.0817 8.00372 11.7891 7.77191 11.5435C7.5401 11.2978 7.25829 11.1047 6.9455 10.9772L6.81797 10.9294L5.42463 10.4535C4.39083 10.1004 4.35954 8.67277 5.33016 8.25474L5.42463 8.21814L6.81797 7.74225C7.13752 7.63305 7.42993 7.45659 7.67549 7.22477C7.92104 6.99296 8.11403 6.71117 8.24143 6.39842L8.28925 6.27089L8.76512 4.87688ZM14.606 2.84106C14.7164 2.84106 14.8246 2.87205 14.9184 2.9305C15.0121 2.98895 15.0875 3.07252 15.1361 3.17171L15.1645 3.24079L15.3711 3.84657L15.9775 4.05322C16.0881 4.09083 16.1852 4.16045 16.2563 4.25327C16.3273 4.34609 16.3693 4.45792 16.3767 4.57459C16.3842 4.69126 16.3569 4.80752 16.2982 4.90863C16.2395 5.00975 16.1521 5.09117 16.0471 5.14257L15.9775 5.17091L15.3717 5.37756L15.1651 5.98394C15.1274 6.0946 15.0577 6.19159 14.9649 6.26262C14.872 6.33364 14.7602 6.37551 14.6435 6.38291C14.5269 6.39031 14.4106 6.3629 14.3096 6.30418C14.2085 6.24545 14.1271 6.15804 14.0758 6.05302L14.0474 5.98394L13.8408 5.37815L13.2345 5.1715C13.1238 5.1339 13.0267 5.06427 12.9556 4.97146C12.8846 4.87864 12.8426 4.76681 12.8352 4.65014C12.8277 4.53347 12.8551 4.41721 12.9137 4.31609C12.9724 4.21498 13.0598 4.13356 13.1648 4.08215L13.2345 4.05381L13.8402 3.84716L14.0468 3.24079C14.0867 3.12413 14.162 3.02286 14.2622 2.95118C14.3625 2.8795 14.4827 2.84099 14.606 2.84106Z" fill="#F9F9F9"/>
</svg>
