<svg width="24" height="16" viewBox="0 0 24 16" fill="none" xmlns="http://www.w3.org/2000/svg">
<path d="M19.2448 0.385986C19.442 0.420835 19.6478 0.429547 19.8363 0.490532C20.0249 0.542804 20.205 0.638638 20.3764 0.734471C20.5222 0.821593 20.6079 0.960987 20.6765 1.12652C20.7365 1.27462 20.8051 1.41402 20.8908 1.5447C20.9937 1.71023 21.0194 1.88447 21.0365 2.06743C21.0537 2.25038 21.0537 2.44205 21.0794 2.625C21.0879 2.71212 21.1222 2.79053 21.1651 2.86894C21.2508 3.03447 21.268 3.20871 21.2508 3.39167C21.2165 3.72273 21.0879 4.02765 20.8908 4.29773C20.7965 4.4197 20.7193 4.55909 20.6593 4.7072C20.5479 4.95114 20.4107 5.18637 20.2307 5.38675C19.6135 6.04887 18.7048 6.03144 18.1133 5.34319C18.0018 5.22122 17.9247 5.07311 17.8389 4.925C17.7018 4.68106 17.5732 4.43712 17.4275 4.2019C17.2217 3.87955 17.1274 3.53978 17.1446 3.16515C17.1531 3.0519 17.1874 2.95606 17.2474 2.86023C17.2989 2.78182 17.3246 2.67728 17.3332 2.58144C17.3503 2.38978 17.3503 2.19811 17.3589 2.00644C17.376 1.38788 17.6761 0.943563 18.1904 0.629926C18.4304 0.490532 18.6962 0.420835 18.9705 0.40341C19.0048 0.40341 19.0391 0.394698 19.0734 0.385986C19.1163 0.385986 19.1848 0.385986 19.2448 0.385986Z" fill="#FF9B10"/>
<path d="M11.1599 13.4393C11.2151 13.1596 11.2704 12.8799 11.3257 12.6001C11.3368 12.5615 11.3368 12.5326 11.3478 12.494C11.3699 12.3397 11.3699 12.195 11.2925 12.031C11.1709 11.7513 11.1267 11.4426 11.0493 11.1532C11.0272 11.0471 11.0272 10.941 11.0161 10.8349C11.0051 10.7481 11.0493 10.7095 11.1377 10.7095C11.182 10.7095 11.2262 10.6999 11.2594 10.6999C11.7901 10.6999 12.3097 10.6999 12.8404 10.7095C12.8736 10.7095 12.9068 10.7191 12.9399 10.7191C12.9842 10.9699 12.9178 11.2015 12.8625 11.4426C12.7962 11.6838 12.6967 11.9249 12.6193 12.1564C12.5972 12.2046 12.5972 12.2625 12.6082 12.3204C12.6746 12.6773 12.7409 13.0342 12.8183 13.3911C12.8183 13.4104 12.8294 13.4201 12.8515 13.4586C12.8957 13.4008 12.9289 13.3525 12.962 13.3043C13.3048 12.6869 13.5812 12.0407 13.8134 11.3944C14.0013 10.8542 14.1782 10.3044 14.3662 9.75454C14.3773 9.73524 14.3773 9.71595 14.3883 9.70631C14.4436 9.54232 14.4657 9.52303 14.6537 9.59055C15.4276 9.88958 16.2015 10.179 16.9644 10.4876C17.7163 10.7963 18.247 11.3076 18.6008 11.9538C18.9546 12.6001 19.1647 13.2754 19.1978 13.9795C19.2089 14.2207 19.1978 14.2689 18.9435 14.3461C18.4349 14.4908 17.9263 14.6355 17.4067 14.7416C16.0025 15.0213 14.5763 15.1274 13.15 15.1274C12.0112 15.1274 10.8724 15.1371 9.73358 15.0985C8.29626 15.0502 6.86999 14.8766 5.48795 14.4908C5.28893 14.4329 5.11203 14.3557 4.92407 14.2786C4.83562 14.24 4.79139 14.1821 4.80245 14.0953C4.86879 13.0824 5.15625 12.1275 5.88597 11.3076C6.284 10.8638 6.80365 10.5552 7.38964 10.3237C8.05302 10.0632 8.7164 9.82206 9.37978 9.57126C9.57879 9.49409 9.58985 9.51338 9.64514 9.69666C9.92154 10.5166 10.198 11.3461 10.5075 12.1661C10.6513 12.5519 10.8724 12.9088 11.0493 13.285C11.0825 13.3429 11.1156 13.3911 11.1488 13.449C11.1267 13.4393 11.1377 13.4393 11.1599 13.4393Z" fill="#FF9B10"/>
<path d="M11.891 0.728516C12.618 0.753227 13.318 0.876787 13.9641 1.16097C14.4218 1.35867 14.7449 1.67992 14.9065 2.12474C14.9738 2.28536 15.0411 2.44599 15.1622 2.58191C15.4315 2.92787 15.5392 3.31091 15.5795 3.71865C15.6065 4.02755 15.6199 4.33645 15.6469 4.64535C15.6603 4.80597 15.7007 4.95424 15.8219 5.10251C15.9834 5.28785 16.0103 5.52262 15.9969 5.75738C15.9834 6.4246 15.7411 7.03004 15.2968 7.56135C15.0815 7.82082 14.9199 8.08029 14.7853 8.37684C14.3814 9.26646 13.6949 9.90897 12.6853 10.2179C11.8506 10.4773 11.0833 10.2549 10.3968 9.81012C9.84483 9.4518 9.50828 8.93285 9.19866 8.38919C9.03712 8.09265 8.86212 7.7714 8.64673 7.49957C8.21595 6.96826 7.9871 6.37518 8.00056 5.70796C8.00056 5.42377 8.05441 5.15194 8.28326 4.92953C8.35057 4.86775 8.35057 4.74419 8.36403 4.6577C8.37749 4.31174 8.37749 3.97813 8.39095 3.63216C8.45826 2.18652 9.50828 1.07448 11.0564 0.815009C11.3391 0.765585 11.6218 0.753227 11.891 0.728516Z" fill="#FF9B10"/>
<path d="M20.9766 5.18579C21.5571 5.4515 22.1289 5.68292 22.6747 5.96578C23.1598 6.21434 23.4804 6.63434 23.6883 7.14005C23.8529 7.52575 23.9482 7.93718 23.9915 8.3486C24.0175 8.57145 23.9915 8.64002 23.7749 8.71716C23.515 8.81145 23.2551 8.88859 22.9866 8.95716C22.2155 9.14573 21.4271 9.22287 20.6301 9.24859C20.0583 9.2743 19.4865 9.28287 18.906 9.30001C18.8627 9.30001 18.8194 9.29144 18.7847 9.2743C18.135 8.88002 17.4332 8.59717 16.7401 8.31432C16.6708 8.2886 16.6015 8.25432 16.5322 8.2286C16.4542 8.20289 16.4369 8.15146 16.4802 8.08289C16.6275 7.83432 16.7661 7.57718 16.9221 7.33718C17.1993 6.90862 17.3466 6.45434 17.3293 5.94864C17.3206 5.82007 17.3033 5.6915 17.2773 5.56293C17.2686 5.49436 17.2686 5.44293 17.3379 5.41721C17.4765 5.36579 17.6152 5.31436 17.7624 5.26293C17.8318 5.23722 17.8664 5.26293 17.8837 5.34007C17.9877 5.76007 18.0917 6.18006 18.2216 6.59148C18.3169 6.90005 18.4382 7.19147 18.5768 7.4829C18.6548 7.63718 18.7761 7.78289 18.906 7.90289C19.2006 8.17717 19.6164 8.1686 19.9197 7.90289C20.1449 7.70575 20.2835 7.44861 20.3962 7.17433C20.6214 6.63434 20.7514 6.06863 20.89 5.5115C20.916 5.41722 20.942 5.31436 20.9766 5.18579Z" fill="#FF9B10"/>
<path d="M4.79404 0.389871C5.1526 0.372389 5.50263 0.442318 5.82704 0.608399C6.06608 0.730774 6.24537 0.914337 6.3222 1.18531C6.34781 1.26398 6.38196 1.34265 6.43318 1.41258C6.59539 1.63111 6.63808 1.87586 6.67223 2.13809C6.69784 2.3304 6.70637 2.5227 6.72345 2.70626C6.72345 2.73249 6.73199 2.76745 6.74052 2.79368C6.94542 3.23947 6.86004 3.66779 6.62954 4.07862C6.4588 4.38456 6.29659 4.6905 6.11731 4.98769C5.86973 5.42475 5.5197 5.73943 5.03308 5.84432C4.64037 5.93173 4.29888 5.80062 3.99154 5.57335C3.70981 5.36356 3.51346 5.08385 3.36833 4.76043C3.29149 4.5856 3.19758 4.41952 3.0866 4.26218C2.86463 3.92128 2.7195 3.55415 2.74511 3.14332C2.75365 3.03843 2.81341 2.93353 2.85609 2.83738C2.88171 2.76745 2.91585 2.70626 2.91585 2.63634C2.94147 2.35662 2.93293 2.0769 2.97561 1.80593C3.10367 1.00175 3.72689 0.433577 4.52085 0.389871C4.61476 0.38113 4.70867 0.389871 4.79404 0.389871Z" fill="#FF9B10"/>
<path d="M3.12665 5.18579C3.21624 5.53721 3.30583 5.86292 3.39542 6.1972C3.50292 6.60005 3.61043 7.01148 3.82544 7.38004C3.92399 7.5429 4.04046 7.70575 4.17484 7.84289C4.4884 8.17717 4.89155 8.11718 5.17824 7.94575C5.36637 7.83432 5.48284 7.67147 5.59034 7.50004C5.82328 7.08005 5.96662 6.6172 6.101 6.16292C6.17267 5.88864 6.24434 5.61435 6.31602 5.34007C6.34289 5.24579 6.38768 5.22008 6.47727 5.25436C6.56686 5.28007 6.66541 5.31436 6.755 5.34865C6.71916 5.46864 6.67437 5.58007 6.65645 5.6915C6.57582 6.23149 6.71021 6.72862 6.98793 7.19147C7.14023 7.45718 7.31941 7.7229 7.48067 7.98861C7.57922 8.15146 7.57026 8.17717 7.38212 8.25432C6.97001 8.42574 6.53999 8.58002 6.12788 8.76859C5.7964 8.91431 5.4918 9.0943 5.16928 9.25716C5.12448 9.28287 5.07073 9.30001 5.01698 9.30001C4.37194 9.28287 3.7269 9.26573 3.08186 9.23145C2.19493 9.18002 1.31696 9.06859 0.465862 8.80288C0.340437 8.7686 0.223972 8.7086 0.107506 8.65717C0.0358353 8.62288 0 8.57145 0 8.49431C0.08063 7.62861 0.304602 6.83148 1.0034 6.21435C1.28112 5.97435 1.60364 5.82864 1.93512 5.6915C2.32931 5.50293 2.7235 5.34865 3.12665 5.18579Z" fill="#FF9B10"/>
</svg>
