<svg width="16" height="14" viewBox="0 0 16 14" fill="none" xmlns="http://www.w3.org/2000/svg">
<path opacity="0.65" d="M1.6 12.4444C1.16 12.4444 0.783467 12.2923 0.4704 11.9879C0.157333 11.6835 0.000533333 11.3172 0 10.8889V1.55556C0 1.12778 0.1568 0.761704 0.4704 0.457333C0.784 0.152963 1.16053 0.000518518 1.6 0H14.4C14.84 0 15.2168 0.152444 15.5304 0.457333C15.844 0.762222 16.0005 1.1283 16 1.55556V10.8889C16 11.3167 15.8435 11.683 15.5304 11.9879C15.2173 12.2928 14.8405 12.445 14.4 12.4444H11.2V13.2222C11.2 13.4426 11.1232 13.6274 10.9696 13.7768C10.816 13.9261 10.6261 14.0005 10.4 14H5.6C5.37333 14 5.18347 13.9253 5.0304 13.776C4.87733 13.6267 4.80053 13.4421 4.8 13.2222V12.4444H1.6ZM1.6 10.8889H14.4V1.55556H1.6V10.8889ZM4.8 9.33333H11.2V8.90555C11.2 8.32222 10.9067 7.85892 10.32 7.51567C9.73333 7.17241 8.96 7.00052 8 7C7.04 6.99948 6.26667 7.17137 5.68 7.51567C5.09333 7.85996 4.8 8.32326 4.8 8.90555V9.33333ZM8 6.22222C8.44 6.22222 8.8168 6.07004 9.1304 5.76567C9.444 5.4613 9.60053 5.09496 9.6 4.66667C9.59947 4.23837 9.44293 3.8723 9.1304 3.56844C8.81787 3.26459 8.44107 3.11215 8 3.11111C7.55893 3.11007 7.1824 3.26252 6.8704 3.56844C6.5584 3.87437 6.4016 4.24044 6.4 4.66667C6.3984 5.09289 6.5552 5.45922 6.8704 5.76567C7.1856 6.07211 7.56213 6.2243 8 6.22222Z" fill="#5069E7"/>
</svg>
