<svg width="17" height="16" viewBox="0 0 17 16" fill="none" xmlns="http://www.w3.org/2000/svg">
<path d="M1.7 14.2222C1.2325 14.2222 0.832433 14.0483 0.4998 13.7004C0.167167 13.3526 0.000566667 12.9339 0 12.4444V1.77778C0 1.28889 0.1666 0.870518 0.4998 0.522667C0.833 0.174815 1.23307 0.000592592 1.7 0H15.3C15.7675 0 16.1678 0.174222 16.501 0.522667C16.8342 0.871111 17.0006 1.28948 17 1.77778V12.4444C17 12.9333 16.8337 13.352 16.501 13.7004C16.1684 14.0489 15.7681 14.2228 15.3 14.2222H11.9V15.1111C11.9 15.363 11.8184 15.5742 11.6552 15.7449C11.492 15.9156 11.2903 16.0006 11.05 16H5.95C5.70917 16 5.50743 15.9147 5.3448 15.744C5.18217 15.5733 5.10057 15.3624 5.1 15.1111V14.2222H1.7Z" fill="#5069E7"/>
<path d="M11.9016 10.6658H5.10156V10.1769C5.10156 9.51143 5.41323 8.98195 6.03656 8.58847C6.6599 8.19499 7.48156 7.99854 8.50156 7.99914C9.52156 7.99973 10.3432 8.19617 10.9666 8.58847C11.5899 8.98077 11.9016 9.51025 11.9016 10.1769V10.6658Z" fill="white"/>
<path d="M9.70261 6.58847C9.36941 6.93632 8.96906 7.11025 8.50156 7.11025C8.03633 7.11262 7.63626 6.93869 7.30136 6.58847C6.96646 6.23825 6.79986 5.81958 6.80156 5.33247C6.80326 4.84536 6.96986 4.42699 7.30136 4.07736C7.63286 3.72773 8.03293 3.55351 8.50156 3.55469C8.97019 3.55588 9.37054 3.7301 9.70261 4.07736C10.0347 4.42462 10.201 4.84299 10.2016 5.33247C10.2021 5.82195 10.0358 6.24062 9.70261 6.58847Z" fill="white"/>
</svg>
