<svg width="24" height="24" viewBox="0 0 24 24" fill="none" xmlns="http://www.w3.org/2000/svg">
<path d="M6.20078 10.3999C6.20021 9.09091 6.60737 7.81426 7.36571 6.74732C8.12404 5.68039 9.19587 4.87616 10.4323 4.44638C10.3844 4.14641 10.4022 3.83961 10.4844 3.54717C10.5666 3.25473 10.7112 2.98361 10.9084 2.7525C11.1055 2.52139 11.3504 2.3358 11.6263 2.20854C11.9021 2.08128 12.2023 2.01538 12.506 2.01538C12.8098 2.01538 13.11 2.08128 13.3858 2.20854C13.6616 2.3358 13.9066 2.52139 14.1037 2.7525C14.3008 2.98361 14.4455 3.25473 14.5277 3.54717C14.6099 3.83961 14.6277 4.14641 14.5798 4.44638C15.8142 4.87792 16.8838 5.68291 17.6401 6.74969C18.3965 7.81647 18.8021 9.09218 18.8008 10.3999V16.6999L21.9508 18.7999V19.8499H3.05078V18.7999L6.20078 16.6999V10.3999ZM14.6008 20.8999C14.6008 21.4568 14.3795 21.991 13.9857 22.3848C13.5919 22.7786 13.0577 22.9999 12.5008 22.9999C11.9438 22.9999 11.4097 22.7786 11.0159 22.3848C10.622 21.991 10.4008 21.4568 10.4008 20.8999H14.6008Z" fill="#6C757D"/>
</svg>
