<svg width="20" height="15" viewBox="0 0 20 15" fill="none" xmlns="http://www.w3.org/2000/svg">
<path opacity="0.65" fill-rule="evenodd" clip-rule="evenodd" d="M15.1445 12.9624V7.09321H12.4409C11.295 7.29351 10.1491 7.90077 9.00319 8.60501H6.90344C5.95286 8.66065 5.45478 9.60174 6.37932 10.2201C7.11504 10.7479 8.08679 10.7177 9.08295 10.6303C9.76984 10.5969 9.79914 11.4982 9.08295 11.5014C8.83391 11.5205 8.56371 11.4633 8.32769 11.4633C7.08412 11.4617 6.06192 11.2296 5.43525 10.271L5.1211 9.55405L1.99752 8.04226C0.434921 7.53991 -0.676805 9.13596 0.475614 10.2472C2.73813 11.8543 5.05762 13.177 7.43082 14.2452C9.15457 15.269 10.8783 15.234 12.6004 14.2452L15.1445 12.9624ZM5.59476 2.52761V0H9.69171V2.54033H11.6726L7.6294 7.18223L3.57315 2.52761H5.59476ZM20 6.52887H15.9584V13.5521H20V6.52887Z" fill="#2437B1"/>
</svg>
