<svg width="22" height="17" viewBox="0 0 22 17" fill="none" xmlns="http://www.w3.org/2000/svg">
<path opacity="0.65" fill-rule="evenodd" clip-rule="evenodd" d="M16.1337 13.4823V7.99056H13.4857C12.3634 8.17798 11.2411 8.74619 10.1187 9.40514H8.06218C7.13116 9.4572 6.64333 10.3378 7.54884 10.9164C8.26943 11.4102 9.22118 11.382 10.1968 11.3002C10.8696 11.2689 10.8983 12.1123 10.1968 12.1153C9.95293 12.1331 9.68829 12.0796 9.45712 12.0796C8.23914 12.0781 7.23797 11.8609 6.6242 10.964L6.31651 10.2932L3.2572 8.87858C1.72675 8.40854 0.637902 9.90195 1.76661 10.9417C3.98257 12.4455 6.25434 13.6831 8.57871 14.6826C10.267 15.6406 11.9553 15.6078 13.642 14.6826L16.1337 13.4823ZM7.76537 3.71858V1.35352H9.80814V3.73048H11.7483L8.8495 6.28985L5.78535 3.71858H7.76537ZM20.8893 7.46252H16.9308C16.9308 10.0289 16.9308 11.4677 16.9308 14.0341H20.8893V7.46252Z" stroke="#2437B1" stroke-width="1.25"/>
</svg>
