<svg width="17" height="17" viewBox="0 0 17 17" fill="none" xmlns="http://www.w3.org/2000/svg">
<path opacity="0.65" d="M8.5 0C3.80559 0 0 3.80559 0 8.5C0 13.1944 3.80559 17 8.5 17C13.1944 17 17 13.1944 17 8.5C17 3.80559 13.1944 0 8.5 0ZM8.5 1.84692C12.1744 1.84692 15.152 4.82653 15.152 8.5C15.152 12.1735 12.1744 15.152 8.5 15.152C4.82559 15.152 1.84796 12.1735 1.84796 8.5C1.84797 4.82653 4.82559 1.84692 8.5 1.84692ZM11.757 4.46375L6.8305 9.3913L5.2326 7.7934L3.66479 9.36017L5.26269 10.9581L6.84087 12.5363L8.40766 10.9684L13.3352 6.04193L11.757 4.46375Z" fill="#FF6200"/>
</svg>
