<svg width="23" height="18" viewBox="0 0 23 18" fill="none" xmlns="http://www.w3.org/2000/svg">
<path d="M16.4624 6.46876C16.0029 6.46876 15.6125 6.30488 15.2913 5.97713C14.97 5.64938 14.809 5.25076 14.8083 4.78126C14.8075 4.31176 14.9685 3.91351 15.2913 3.58651C15.614 3.25951 16.0044 3.09526 16.4624 3.09376C16.9204 3.09226 17.3112 3.25651 17.6346 3.58651C17.9581 3.91651 18.1187 4.31476 18.1165 4.78126C18.1143 5.24776 17.9537 5.64638 17.6346 5.97713C17.3156 6.30788 16.9248 6.47176 16.4624 6.46876ZM6.53759 6.46876C6.07811 6.46876 5.68774 6.30488 5.36647 5.97713C5.0452 5.64938 4.88419 5.25076 4.88346 4.78126C4.88272 4.31176 5.04373 3.91351 5.36647 3.58651C5.68921 3.25951 6.07958 3.09526 6.53759 3.09376C6.9956 3.09226 7.38635 3.25651 7.70982 3.58651C8.0333 3.91651 8.19393 4.31476 8.19173 4.78126C8.18952 5.24776 8.02889 5.64638 7.70982 5.97713C7.39076 6.30788 7.00001 6.47176 6.53759 6.46876ZM11.5 9.5625C11.0405 9.5625 10.6501 9.39863 10.3289 9.07088C10.0076 8.74313 9.8466 8.34451 9.84586 7.87501C9.84513 7.40551 10.0061 7.00726 10.3289 6.68026C10.6516 6.35326 11.042 6.18901 11.5 6.18751C11.958 6.18601 12.3488 6.35026 12.6722 6.68026C12.9957 7.01026 13.1563 7.40851 13.1541 7.87501C13.1519 8.34151 12.9913 8.74013 12.6722 9.07088C12.3532 9.40163 11.9624 9.5655 11.5 9.5625ZM11.5 3.37501C11.0405 3.37501 10.6501 3.21113 10.3289 2.88338C10.0076 2.55563 9.8466 2.15701 9.84586 1.68751C9.84513 1.21801 10.0061 0.81976 10.3289 0.49276C10.6516 0.16576 11.042 0.00151018 11.5 1.0181e-05C11.958 -0.00148982 12.3488 0.16276 12.6722 0.49276C12.9957 0.82276 13.1563 1.22101 13.1541 1.68751C13.1519 2.15401 12.9913 2.55263 12.6722 2.88338C12.3532 3.21413 11.9624 3.37801 11.5 3.37501ZM11.5 18C11.1324 18 10.7604 17.9719 10.384 17.9156C10.0076 17.8594 9.64443 17.7844 9.29448 17.6906V13.6688C9.29448 13.0125 9.51062 12.4455 9.9429 11.9678C10.3752 11.49 10.8942 11.2508 11.5 11.25C12.1058 11.2493 12.6252 11.4885 13.0582 11.9678C13.4912 12.447 13.707 13.014 13.7055 13.6688V17.6906C13.3563 17.7844 12.9935 17.8594 12.6171 17.9156C12.2407 17.9719 11.8683 18 11.5 18ZM7.64035 17.1C7.27276 16.95 6.91915 16.7812 6.5795 16.5938C6.23985 16.4062 5.91343 16.2 5.60025 15.975C5.08563 15.6 4.67687 15.1125 4.37398 14.5125C4.07109 13.9125 3.91928 13.275 3.91855 12.6C3.91855 12.1125 3.86819 11.658 3.76747 11.2365C3.66675 10.815 3.48737 10.4164 3.22932 10.0406C3.04553 9.79688 2.7011 9.42675 2.19604 8.93025C1.69098 8.43375 1.22672 7.9695 0.803258 7.53751C0.601086 7.33126 0.5 7.06876 0.5 6.75001C0.5 6.43126 0.601086 6.16876 0.803258 5.96251C1.00543 5.75626 1.26274 5.65313 1.57519 5.65313C1.88764 5.65313 2.14495 5.75626 2.34712 5.96251L6.56516 10.0406C6.93275 10.3781 7.20402 10.7768 7.37899 11.2365C7.55397 11.6963 7.64108 12.1695 7.64035 12.6563V17.1ZM15.3596 17.1V12.6563C15.3596 12.1688 15.4515 11.6906 15.6353 11.2219C15.8191 10.7531 16.0856 10.3594 16.4348 10.0406L20.6529 5.96251C20.8734 5.75626 21.1355 5.65313 21.4391 5.65313C21.7428 5.65313 21.9953 5.75626 22.1967 5.96251C22.3982 6.16876 22.4993 6.43126 22.5 6.75001C22.5007 7.06876 22.3996 7.33126 22.1967 7.53751C21.774 7.96875 21.3098 8.42813 20.804 8.91563C20.2982 9.40313 19.9537 9.77813 19.7707 10.0406C19.5134 10.4156 19.334 10.8143 19.2325 11.2365C19.1311 11.6588 19.0807 12.1133 19.0814 12.6C19.0814 13.275 18.9296 13.9174 18.626 14.5271C18.3224 15.1369 17.9044 15.6289 17.3722 16.0031C17.0781 16.2094 16.7612 16.4062 16.4216 16.5938C16.082 16.7812 15.728 16.95 15.3596 17.1Z" fill="#F9F9F9"/>
</svg>
