<svg width="16" height="15" viewBox="0 0 16 15" fill="none" xmlns="http://www.w3.org/2000/svg">
<path opacity="0.65" d="M13.584 3.86412H11.334V3.12727C11.334 2.54101 11.0969 1.97875 10.675 1.5642C10.253 1.14964 9.68072 0.916748 9.08398 0.916748H7.58398C6.98725 0.916748 6.41495 1.14964 5.99299 1.5642C5.57104 1.97875 5.33398 2.54101 5.33398 3.12727V3.86412H3.08398C2.48725 3.86412 1.91495 4.09701 1.49299 4.51156C1.07104 4.92612 0.833984 5.48837 0.833984 6.07464V12.7062C0.833984 13.2925 1.07104 13.8547 1.49299 14.2693C1.91495 14.6839 2.48725 14.9167 3.08398 14.9167H13.584C14.1807 14.9167 14.753 14.6839 15.175 14.2693C15.5969 13.8547 15.834 13.2925 15.834 12.7062V6.07464C15.834 5.48837 15.5969 4.92612 15.175 4.51156C14.753 4.09701 14.1807 3.86412 13.584 3.86412ZM6.83398 3.12727C6.83398 2.93185 6.913 2.74443 7.05365 2.60625C7.19431 2.46806 7.38507 2.39043 7.58398 2.39043H9.08398C9.2829 2.39043 9.47366 2.46806 9.61432 2.60625C9.75497 2.74443 9.83398 2.93185 9.83398 3.12727V3.86412H6.83398V3.12727ZM14.334 12.7062C14.334 12.9016 14.255 13.0891 14.1143 13.2272C13.9737 13.3654 13.7829 13.4431 13.584 13.4431H3.08398C2.88507 13.4431 2.69431 13.3654 2.55365 13.2272C2.413 13.0891 2.33398 12.9016 2.33398 12.7062V8.98517H4.58398V9.75885C4.58398 9.95428 4.663 10.1417 4.80365 10.2799C4.94431 10.4181 5.13507 10.4957 5.33398 10.4957C5.5329 10.4957 5.72366 10.4181 5.86431 10.2799C6.00497 10.1417 6.08398 9.95428 6.08398 9.75885V8.98517H10.584V9.75885C10.584 9.95428 10.663 10.1417 10.8037 10.2799C10.9443 10.4181 11.1351 10.4957 11.334 10.4957C11.5329 10.4957 11.7237 10.4181 11.8643 10.2799C12.005 10.1417 12.084 9.95428 12.084 9.75885V8.98517H14.334V12.7062ZM14.334 7.54833H2.33398V6.07464C2.33398 5.87922 2.413 5.6918 2.55365 5.55362C2.69431 5.41543 2.88507 5.3378 3.08398 5.3378H13.584C13.7829 5.3378 13.9737 5.41543 14.1143 5.55362C14.255 5.6918 14.334 5.87922 14.334 6.07464V7.54833Z" fill="#10B981"/>
</svg>
