<svg width="20" height="20" viewBox="0 0 20 20" fill="none" xmlns="http://www.w3.org/2000/svg">
<path d="M6.75578 9.17867C6.75578 8.96068 6.84238 8.75162 6.99652 8.59748C7.15066 8.44334 7.35972 8.35674 7.57771 8.35674H12.5093C12.7273 8.35674 12.9363 8.44334 13.0905 8.59748C13.2446 8.75162 13.3312 8.96068 13.3312 9.17867C13.3312 9.39666 13.2446 9.60572 13.0905 9.75986C12.9363 9.914 12.7273 10.0006 12.5093 10.0006H7.57771C7.35972 10.0006 7.15066 9.914 6.99652 9.75986C6.84238 9.60572 6.75578 9.39666 6.75578 9.17867ZM7.57771 11.6444C7.35972 11.6444 7.15066 11.731 6.99652 11.8852C6.84238 12.0393 6.75578 12.2484 6.75578 12.4664C6.75578 12.6844 6.84238 12.8934 6.99652 13.0476C7.15066 13.2017 7.35972 13.2883 7.57771 13.2883H10.8654C11.0834 13.2883 11.2925 13.2017 11.4466 13.0476C11.6007 12.8934 11.6873 12.6844 11.6873 12.4664C11.6873 12.2484 11.6007 12.0393 11.4466 11.8852C11.2925 11.731 11.0834 11.6444 10.8654 11.6444H7.57771ZM1.82422 10.0006C1.82463 8.1986 2.41723 6.44668 3.5108 5.01445C4.60438 3.58222 6.13832 2.54907 7.87656 2.07399C9.6148 1.59892 11.461 1.70825 13.131 2.38516C14.801 3.06207 16.2023 4.26904 17.1192 5.82033C18.0361 7.37162 18.4178 9.18123 18.2055 10.9707C17.9933 12.7601 17.1988 14.4302 15.9444 15.724C14.6901 17.0177 13.0453 17.8633 11.2632 18.1307C9.4812 18.3982 7.66066 18.0725 6.0818 17.204L2.88615 18.1771C2.74361 18.2205 2.59195 18.2244 2.44739 18.1883C2.30283 18.1522 2.17081 18.0774 2.06545 17.9721C1.96009 17.8667 1.88535 17.7347 1.84923 17.5901C1.81311 17.4456 1.81696 17.2939 1.86038 17.1514L2.83355 13.9508C2.17069 12.7397 1.82356 11.3812 1.82422 10.0006ZM10.0435 3.42518C8.87625 3.42508 7.73003 3.7357 6.72254 4.32512C5.71506 4.91454 4.88263 5.76152 4.31076 6.77907C3.73889 7.79662 3.44819 8.94806 3.46852 10.1151C3.48885 11.2822 3.81948 12.4228 4.42644 13.4198C4.48669 13.5189 4.52531 13.6295 4.53976 13.7445C4.55421 13.8596 4.54416 13.9763 4.51028 14.0872L3.88068 16.1568L5.94701 15.5272C6.05823 15.4934 6.17537 15.4834 6.2907 15.4982C6.40603 15.5129 6.51692 15.552 6.61605 15.6127C7.48266 16.1418 8.46002 16.463 9.47154 16.5512C10.4831 16.6393 11.5013 16.492 12.4463 16.1208C13.3914 15.7497 14.2377 15.1646 14.9188 14.4116C15.5999 13.6587 16.0975 12.7582 16.3723 11.7807C16.6472 10.8033 16.692 9.77546 16.5032 8.77781C16.3144 7.78017 15.8971 6.83981 15.284 6.03042C14.6709 5.22104 13.8788 4.56463 12.9696 4.11263C12.0604 3.66064 11.0588 3.42534 10.0435 3.42518Z" fill="#7383D5"/>
</svg>
