<svg width="16" height="15" viewBox="0 0 16 15" fill="none" xmlns="http://www.w3.org/2000/svg">
<path d="M2.1835 13.0478C1.76136 13.0478 1.40011 12.8927 1.09975 12.5825C0.799385 12.2722 0.648949 11.8988 0.648438 11.4623V1.94885C0.648438 1.51282 0.798874 1.13968 1.09975 0.829438C1.40062 0.519196 1.76187 0.36381 2.1835 0.363281H14.464C14.8861 0.363281 15.2476 0.518667 15.5485 0.829438C15.8494 1.14021 15.9996 1.51335 15.9991 1.94885V11.4623C15.9991 11.8983 15.8489 12.2717 15.5485 12.5825C15.2482 12.8932 14.8866 13.0484 14.464 13.0478H11.3939V13.8406C11.3939 14.0652 11.3202 14.2537 11.1728 14.4059C11.0255 14.5581 10.8433 14.6339 10.6263 14.6334H6.02115C5.80369 14.6334 5.62153 14.5573 5.47467 14.4051C5.32782 14.2529 5.25413 14.0647 5.25362 13.8406V13.0478H2.1835Z" fill="#1F2937"/>
<path d="M11.3902 9.87548H5.25V9.43945C5.25 8.84592 5.53143 8.37369 6.09428 8.02275C6.65714 7.67181 7.39909 7.4966 8.32012 7.49713C9.24116 7.49766 9.98311 7.67286 10.546 8.02275C11.1088 8.37263 11.3902 8.84486 11.3902 9.43945V9.87548Z" fill="#F9F9F9"/>
<path d="M9.40464 6.23898C9.10377 6.54922 8.74227 6.70435 8.32012 6.70435C7.90003 6.70646 7.53878 6.55134 7.23637 6.23898C6.93396 5.92662 6.78353 5.55322 6.78506 5.11878C6.7866 4.68433 6.93703 4.31119 7.23637 3.99937C7.53571 3.68754 7.89696 3.53215 8.32012 3.53321C8.74329 3.53427 9.1048 3.68965 9.40464 3.99937C9.70449 4.30908 9.85467 4.68222 9.85519 5.11878C9.8557 5.55534 9.70552 5.92874 9.40464 6.23898Z" fill="#F9F9F9"/>
</svg>
