<svg width="15" height="14" viewBox="0 0 15 14" fill="none" xmlns="http://www.w3.org/2000/svg">
<path d="M1.50781 12.3401C1.09531 12.3401 0.742312 12.1952 0.448813 11.9053C0.155313 11.6154 0.0083125 11.2665 0.0078125 10.8586V1.96976C0.0078125 1.56235 0.154813 1.21371 0.448813 0.923837C0.742812 0.63396 1.09581 0.488775 1.50781 0.488281H13.5078C13.9203 0.488281 14.2736 0.633466 14.5676 0.923837C14.8616 1.21421 15.0083 1.56285 15.0078 1.96976V10.8586C15.0078 11.2661 14.8611 11.6149 14.5676 11.9053C14.2741 12.1957 13.9208 12.3406 13.5078 12.3401H10.5078V13.0809C10.5078 13.2907 10.4358 13.4668 10.2918 13.609C10.1478 13.7512 9.96981 13.8221 9.75781 13.8216H5.25781C5.04531 13.8216 4.86731 13.7505 4.72381 13.6083C4.58031 13.4661 4.50831 13.2902 4.50781 13.0809V12.3401H1.50781Z" fill="#5069E7"/>
<path d="M10.5078 9.3771H4.50781V8.96969C4.50781 8.41513 4.78281 7.97389 5.33281 7.64599C5.88281 7.31809 6.60781 7.15439 7.50781 7.15488C8.40781 7.15537 9.13281 7.31908 9.68281 7.64599C10.2328 7.9729 10.5078 8.41414 10.5078 8.96969V9.3771Z" fill="#F9F9F9"/>
<path d="M8.56756 5.97932C8.27356 6.2692 7.92031 6.41414 7.50781 6.41414C7.09731 6.41611 6.74431 6.27118 6.44881 5.97932C6.15331 5.68747 6.00631 5.33858 6.00781 4.93266C6.00931 4.52673 6.15631 4.17809 6.44881 3.88673C6.74131 3.59537 7.09431 3.45019 7.50781 3.45118C7.92131 3.45216 8.27456 3.59735 8.56756 3.88673C8.86056 4.17611 9.00731 4.52476 9.00781 4.93266C9.00831 5.34056 8.86156 5.68945 8.56756 5.97932Z" fill="#F9F9F9"/>
</svg>
