<svg width="17" height="16" viewBox="0 0 17 16" fill="none" xmlns="http://www.w3.org/2000/svg">
<g clip-path="url(#clip0_2828_71139)">
<path d="M4.83293 0C4.98761 0 5.13596 0.060194 5.24534 0.16734C5.35471 0.274486 5.41616 0.419807 5.41616 0.571335V1.14267H7.74909V0.571335C7.74909 0.419807 7.81054 0.274486 7.91991 0.16734C8.02929 0.060194 8.17764 0 8.33232 0C8.487 0 8.63535 0.060194 8.74473 0.16734C8.8541 0.274486 8.91555 0.419807 8.91555 0.571335V1.14267H11.2485V0.571335C11.2485 0.419807 11.3099 0.274486 11.4193 0.16734C11.5287 0.060194 11.677 0 11.8317 0C11.9864 0 12.1347 0.060194 12.2441 0.16734C12.3535 0.274486 12.4149 0.419807 12.4149 0.571335V1.14267C12.879 1.14267 13.324 1.32325 13.6522 1.64469C13.9803 1.96613 14.1646 2.40209 14.1646 2.85667V5.75448C13.5589 5.85739 13.0006 6.14161 12.5666 6.56806L11.0024 8.10152C10.9035 8.03395 10.7858 7.99802 10.6652 7.99868H5.99939C5.84471 7.99868 5.69636 8.05888 5.58698 8.16602C5.47761 8.27317 5.41616 8.41849 5.41616 8.57002C5.41616 8.72155 5.47761 8.86687 5.58698 8.97401C5.69636 9.08116 5.84471 9.14135 5.99939 9.14135H9.94087L7.56479 11.4678C7.41937 11.611 7.28483 11.7634 7.16119 11.9249C7.14304 11.7872 7.0743 11.6606 6.96782 11.5689C6.86133 11.4772 6.7244 11.4267 6.58262 11.4267H5.99939C5.84471 11.4267 5.69636 11.4869 5.58698 11.594C5.47761 11.7012 5.41616 11.8465 5.41616 11.998C5.41616 12.1496 5.47761 12.2949 5.58698 12.402C5.69636 12.5092 5.84471 12.5694 5.99939 12.5694H6.58262C6.64483 12.5695 6.70666 12.5598 6.76576 12.5408C6.60987 12.8371 6.48932 13.1499 6.40649 13.4732L6.05305 14.857C5.95513 15.2359 5.98375 15.6356 6.1347 15.9974H4.2497C3.78565 15.9974 3.34061 15.8168 3.01247 15.4953C2.68434 15.1739 2.5 14.7379 2.5 14.2834V2.85667C2.5 2.40209 2.68434 1.96613 3.01247 1.64469C3.34061 1.32325 3.78565 1.14267 4.2497 1.14267V0.571335C4.2497 0.419807 4.31114 0.274486 4.42052 0.16734C4.5299 0.060194 4.67825 0 4.83293 0ZM5.41616 5.14201C5.41616 5.29354 5.47761 5.43886 5.58698 5.54601C5.69636 5.65315 5.84471 5.71335 5.99939 5.71335H10.6652C10.8199 5.71335 10.9683 5.65315 11.0777 5.54601C11.187 5.43886 11.2485 5.29354 11.2485 5.14201C11.2485 4.99048 11.187 4.84516 11.0777 4.73802C10.9683 4.63087 10.8199 4.57068 10.6652 4.57068H5.99939C5.84471 4.57068 5.69636 4.63087 5.58698 4.73802C5.47761 4.84516 5.41616 4.99048 5.41616 5.14201ZM13.3924 7.37593C13.7338 7.04151 14.1968 6.85363 14.6796 6.85363C15.1624 6.85363 15.6254 7.04151 15.9668 7.37593C16.3082 7.71035 16.5 8.16392 16.5 8.63687C16.5 9.10981 16.3082 9.56338 15.9668 9.8978L10.9639 14.7976C10.548 15.2034 10.0282 15.4919 9.45912 15.6329L8.04654 15.9791C7.92728 16.0084 7.80231 16.0069 7.68382 15.9748C7.56532 15.9426 7.45735 15.881 7.37041 15.7958C7.28347 15.7107 7.22055 15.6049 7.18777 15.4888C7.15498 15.3728 7.15346 15.2503 7.18335 15.1335L7.53796 13.7509C7.68027 13.1921 7.97422 12.6825 8.38948 12.2768L13.3924 7.37593Z" fill="#4338CA"/>
</g>
<defs>
<clipPath id="clip0_2828_71139">
<rect width="16" height="16" fill="white" transform="translate(0.5)"/>
</clipPath>
</defs>
</svg>
