<svg width="25" height="24" viewBox="0 0 25 24" fill="none" xmlns="http://www.w3.org/2000/svg">
<g clip-path="url(#clip0_3974_120153)">
<path d="M20.8822 11.9997L21.9862 10.0917C22.1189 9.86213 22.155 9.58928 22.0865 9.33312C22.0181 9.07696 21.8507 8.85847 21.6212 8.72569L19.7112 7.62169V5.42169C19.7112 5.15647 19.6058 4.90212 19.4183 4.71458C19.2308 4.52705 18.9764 4.42169 18.7112 4.42169H16.5122L15.4092 2.51269C15.2766 2.28302 15.0583 2.1154 14.8022 2.04669C14.6753 2.01269 14.543 2.00403 14.4127 2.02118C14.2825 2.03834 14.1569 2.08099 14.0432 2.14669L12.1332 3.25069L10.2232 2.14569C9.99351 2.01309 9.72056 1.97715 9.46439 2.04579C9.20821 2.11443 8.9898 2.28202 8.85718 2.51169L7.75318 4.42169H5.55419C5.28897 4.42169 5.03462 4.52705 4.84708 4.71458C4.65954 4.90212 4.55419 5.15647 4.55419 5.42169V7.62069L2.64418 8.72469C2.53041 8.79044 2.43072 8.87796 2.35079 8.98226C2.27086 9.08656 2.21228 9.20559 2.17838 9.33255C2.14448 9.4595 2.13594 9.59189 2.15323 9.72215C2.17053 9.85241 2.21333 9.97798 2.27918 10.0917L3.38319 11.9997L2.27918 13.9077C2.14717 14.1375 2.11136 14.4101 2.17954 14.6662C2.24773 14.9223 2.41439 15.141 2.64319 15.2747L4.55319 16.3787V18.5777C4.55319 18.8429 4.65854 19.0973 4.84608 19.2848C5.03361 19.4723 5.28797 19.5777 5.55319 19.5777H7.75318L8.85718 21.4877C8.94572 21.639 9.07212 21.7647 9.22396 21.8524C9.37581 21.9401 9.54785 21.9867 9.72319 21.9877C9.89718 21.9877 10.0702 21.9417 10.2242 21.8527L12.1322 20.7487L14.0422 21.8527C14.2717 21.9854 14.5446 22.0215 14.8008 21.953C15.0569 21.8846 15.2754 21.7172 15.4082 21.4877L16.5112 19.5777H18.7102C18.9754 19.5777 19.2298 19.4723 19.4173 19.2848C19.6048 19.0973 19.7102 18.8429 19.7102 18.5777V16.3787L21.6202 15.2747C21.734 15.2089 21.8337 15.1214 21.9136 15.0171C21.9935 14.9128 22.0521 14.7938 22.086 14.6668C22.1199 14.5399 22.1284 14.4075 22.1111 14.2772C22.0938 14.147 22.051 14.0214 21.9852 13.9077L20.8822 11.9997Z" fill="#FF9B10"/>
<path fill-rule="evenodd" clip-rule="evenodd" d="M14.7459 17.5345H10.1897C9.43438 17.5345 8.71001 17.2344 8.17592 16.7003C7.64184 16.1663 7.3418 15.4419 7.3418 14.6866V9.32055C7.3418 8.56524 7.64184 7.84087 8.17592 7.30678C8.71001 6.7727 9.43438 6.47266 10.1897 6.47266H12.8529C13.416 6.47278 13.96 6.67724 14.3838 7.04808L16.7991 9.16108C17.0487 9.37938 17.2488 9.64855 17.3859 9.95053C17.5229 10.2525 17.5938 10.5803 17.5938 10.9119V14.6866C17.5938 15.0606 17.5201 15.4309 17.377 15.7764C17.2339 16.1219 17.0241 16.4359 16.7597 16.7003C16.4952 16.9648 16.1813 17.1746 15.8358 17.3177C15.4902 17.4608 15.1199 17.5345 14.7459 17.5345ZM14.7459 16.2055H10.1897C9.99022 16.2055 9.7927 16.1663 9.60841 16.0899C9.42412 16.0136 9.25667 15.9017 9.11562 15.7607C8.97457 15.6196 8.86268 15.4522 8.78635 15.2679C8.71001 15.0836 8.67072 14.8861 8.67072 14.6866V9.32055C8.67072 8.91769 8.83076 8.53134 9.11562 8.24648C9.40048 7.96162 9.78683 7.80158 10.1897 7.80158H12.8529C13.0941 7.80168 13.3271 7.88927 13.5087 8.0481L15.924 10.1611C16.0311 10.2547 16.1169 10.3701 16.1757 10.4996C16.2345 10.6291 16.2649 10.7697 16.2649 10.9119V14.6866C16.2649 14.8861 16.2256 15.0836 16.1493 15.2679C16.0729 15.4522 15.961 15.6196 15.82 15.7607C15.6789 15.9017 15.5115 16.0136 15.3272 16.0899C15.1429 16.1663 14.9454 16.2055 14.7459 16.2055Z" fill="white"/>
<path fill-rule="evenodd" clip-rule="evenodd" d="M9.33203 10.8852C9.33203 10.7089 9.40204 10.5399 9.52665 10.4153C9.65126 10.2907 9.82027 10.2207 9.99649 10.2207H13.3188C13.495 10.2207 13.664 10.2907 13.7887 10.4153C13.9133 10.5399 13.9833 10.7089 13.9833 10.8852C13.9833 11.0614 13.9133 11.2304 13.7887 11.355C13.664 11.4796 13.495 11.5496 13.3188 11.5496H9.99649C9.82027 11.5496 9.65126 11.4796 9.52665 11.355C9.40204 11.2304 9.33203 11.0614 9.33203 10.8852ZM9.33203 13.543C9.33203 13.3668 9.40204 13.1978 9.52665 13.0732C9.65126 12.9486 9.82027 12.8786 9.99649 12.8786H12.0729C12.2492 12.8786 12.4182 12.9486 12.5428 13.0732C12.6674 13.1978 12.7374 13.3668 12.7374 13.543C12.7374 13.7192 12.6674 13.8883 12.5428 14.0129C12.4182 14.1375 12.2492 14.2075 12.0729 14.2075H9.99649C9.82027 14.2075 9.65126 14.1375 9.52665 14.0129C9.40204 13.8883 9.33203 13.7192 9.33203 13.543Z" fill="white"/>
<path d="M20.4375 11.8418C21.1789 11.8418 21.8944 12.1298 22.4248 12.6494C22.9559 13.1697 23.2578 13.8801 23.2578 14.625C23.2578 15.3699 22.9559 16.0803 22.4248 16.6006L17.4219 21.5L17.4199 21.501C16.8756 22.0322 16.1971 22.4085 15.457 22.5918H15.4551L14.043 22.9385C13.7593 23.0081 13.4617 23.0042 13.1797 22.9277C12.8978 22.8512 12.6388 22.7039 12.4287 22.498C12.2184 22.292 12.0641 22.0345 11.9834 21.749C11.9027 21.4634 11.8991 21.1616 11.9727 20.874V20.873L12.3271 19.4902H12.3281C12.5161 18.7538 12.9027 18.0829 13.4482 17.5498L18.4502 12.6494C18.9806 12.1298 19.6961 11.8418 20.4375 11.8418Z" fill="#FF9B10" stroke="#FEF6F6" stroke-width="2"/>
</g>
<defs>
<clipPath id="clip0_3974_120153">
<rect width="24" height="24" fill="white" transform="translate(0.132812)"/>
</clipPath>
</defs>
</svg>
