<svg width="25" height="24" viewBox="0 0 25 24" fill="none" xmlns="http://www.w3.org/2000/svg">
<path d="M21.683 11.9997L22.787 10.0917C22.9197 9.86213 22.9557 9.58928 22.8873 9.33312C22.8188 9.07696 22.6515 8.85847 22.422 8.72569L20.512 7.62169V5.42169C20.512 5.15647 20.4066 4.90212 20.2191 4.71458C20.0315 4.52705 19.7772 4.42169 19.512 4.42169H17.313L16.21 2.51269C16.0774 2.28302 15.8591 2.1154 15.603 2.04669C15.4761 2.01269 15.3438 2.00403 15.2135 2.02118C15.0833 2.03834 14.9577 2.08099 14.844 2.14669L12.934 3.25069L11.024 2.14569C10.7943 2.01309 10.5213 1.97715 10.2652 2.04579C10.009 2.11443 9.79058 2.28202 9.65797 2.51169L8.55397 4.42169H6.35497C6.08975 4.42169 5.8354 4.52705 5.64786 4.71458C5.46032 4.90212 5.35497 5.15647 5.35497 5.42169V7.62069L3.44497 8.72469C3.33119 8.79044 3.2315 8.87796 3.15157 8.98226C3.07164 9.08656 3.01306 9.20559 2.97916 9.33255C2.94526 9.4595 2.93672 9.59189 2.95401 9.72215C2.97131 9.85241 3.01411 9.97798 3.07997 10.0917L4.18397 11.9997L3.07997 13.9077C2.94795 14.1375 2.91214 14.4101 2.98032 14.6662C3.04851 14.9223 3.21517 15.141 3.44397 15.2747L5.35397 16.3787V18.5777C5.35397 18.8429 5.45932 19.0973 5.64686 19.2848C5.8344 19.4723 6.08875 19.5777 6.35397 19.5777H8.55397L9.65797 21.4877C9.7465 21.639 9.8729 21.7647 10.0247 21.8524C10.1766 21.9401 10.3486 21.9867 10.524 21.9877C10.698 21.9877 10.871 21.9417 11.025 21.8527L12.933 20.7487L14.843 21.8527C15.0725 21.9854 15.3454 22.0215 15.6015 21.953C15.8577 21.8846 16.0762 21.7172 16.209 21.4877L17.312 19.5777H19.511C19.7762 19.5777 20.0305 19.4723 20.2181 19.2848C20.4056 19.0973 20.511 18.8429 20.511 18.5777V16.3787L22.421 15.2747C22.5347 15.2089 22.6344 15.1214 22.7144 15.0171C22.7943 14.9128 22.8529 14.7938 22.8868 14.6668C22.9207 14.5399 22.9292 14.4075 22.9119 14.2772C22.8946 14.147 22.8518 14.0214 22.786 13.9077L21.683 11.9997Z" fill="#FF9B10"/>
<path fill-rule="evenodd" clip-rule="evenodd" d="M15.5467 17.5345H10.9905C10.2352 17.5345 9.51079 17.2344 8.97671 16.7003C8.44262 16.1663 8.14258 15.4419 8.14258 14.6866V9.32055C8.14258 8.56524 8.44262 7.84087 8.97671 7.30678C9.51079 6.7727 10.2352 6.47266 10.9905 6.47266H13.6536C14.2168 6.47278 14.7608 6.67724 15.1846 7.04808L17.5999 9.16108C17.8495 9.37938 18.0496 9.64855 18.1867 9.95053C18.3237 10.2525 18.3946 10.5803 18.3946 10.9119V14.6866C18.3946 15.0606 18.3209 15.4309 18.1778 15.7764C18.0347 16.1219 17.8249 16.4359 17.5605 16.7003C17.296 16.9648 16.9821 17.1746 16.6365 17.3177C16.291 17.4608 15.9207 17.5345 15.5467 17.5345ZM15.5467 16.2055H10.9905C10.791 16.2055 10.5935 16.1663 10.4092 16.0899C10.2249 16.0136 10.0574 15.9017 9.9164 15.7607C9.77535 15.6196 9.66346 15.4522 9.58713 15.2679C9.51079 15.0836 9.47151 14.8861 9.47151 14.6866V9.32055C9.47151 8.91769 9.63154 8.53134 9.9164 8.24648C10.2013 7.96162 10.5876 7.80158 10.9905 7.80158H13.6536C13.8949 7.80168 14.1279 7.88927 14.3095 8.0481L16.7248 10.1611C16.8319 10.2547 16.9177 10.3701 16.9765 10.4996C17.0353 10.6291 17.0657 10.7697 17.0657 10.9119V14.6866C17.0657 14.8861 17.0264 15.0836 16.95 15.2679C16.8737 15.4522 16.7618 15.6196 16.6208 15.7607C16.4797 15.9017 16.3123 16.0136 16.128 16.0899C15.9437 16.1663 15.7462 16.2055 15.5467 16.2055Z" fill="white"/>
<path fill-rule="evenodd" clip-rule="evenodd" d="M10.1328 10.8852C10.1328 10.7089 10.2028 10.5399 10.3274 10.4153C10.452 10.2907 10.621 10.2207 10.7973 10.2207H14.1196C14.2958 10.2207 14.4648 10.2907 14.5894 10.4153C14.7141 10.5399 14.7841 10.7089 14.7841 10.8852C14.7841 11.0614 14.7141 11.2304 14.5894 11.355C14.4648 11.4796 14.2958 11.5496 14.1196 11.5496H10.7973C10.621 11.5496 10.452 11.4796 10.3274 11.355C10.2028 11.2304 10.1328 11.0614 10.1328 10.8852ZM10.1328 13.543C10.1328 13.3668 10.2028 13.1978 10.3274 13.0732C10.452 12.9486 10.621 12.8786 10.7973 12.8786H12.8737C13.05 12.8786 13.219 12.9486 13.3436 13.0732C13.4682 13.1978 13.5382 13.3668 13.5382 13.543C13.5382 13.7192 13.4682 13.8883 13.3436 14.0129C13.219 14.1375 13.05 14.2075 12.8737 14.2075H10.7973C10.621 14.2075 10.452 14.1375 10.3274 14.0129C10.2028 13.8883 10.1328 13.7192 10.1328 13.543Z" fill="white"/>
</svg>
