<svg width="22" height="19" viewBox="0 0 22 19" fill="none" xmlns="http://www.w3.org/2000/svg">
<path d="M4.78125 9C4.78125 9.27614 5.0191 9.5 5.3125 9.5C5.6059 9.5 5.84375 9.27614 5.84375 9V8.5H11.1562V9C11.1562 9.27614 11.3941 9.5 11.6875 9.5C11.9809 9.5 12.2188 9.27614 12.2188 9V8.5H17V11.667C16.9999 12.2857 16.7311 12.8789 16.2529 13.3164C15.7748 13.7539 15.1264 14 14.4502 14H2.5498C1.87358 14 1.22524 13.7539 0.74707 13.3164C0.268936 12.8789 9.41039e-05 12.2857 0 11.667V8.5H4.78125V9ZM9.34961 0C10.0259 0 10.6751 0.246009 11.1533 0.683594C11.6313 1.12108 11.9003 1.71437 11.9004 2.33301V3.11133H14.4502C15.1264 3.11138 15.7748 3.35738 16.2529 3.79492C16.7311 4.23247 17 4.82558 17 5.44434V7.5H0V5.44434C3.14619e-05 4.82558 0.268937 4.23247 0.74707 3.79492C1.22524 3.35738 1.87357 3.11138 2.5498 3.11133H5.09961V2.33301C5.0997 1.71437 5.36867 1.12108 5.84668 0.683594C6.3249 0.246009 6.97409 0 7.65039 0H9.34961ZM7.65039 1.55566C7.42496 1.55566 7.20823 1.63735 7.04883 1.7832C6.88951 1.92899 6.7999 2.12685 6.7998 2.33301V3.11133H10.2002V2.33301C10.2001 2.12685 10.1105 1.92899 9.95117 1.7832C9.79177 1.63735 9.57504 1.55566 9.34961 1.55566H7.65039Z" fill="#10B981"/>
<path d="M18.5176 7.5C19.1296 7.5 19.7184 7.73818 20.1543 8.16504C20.5905 8.59239 20.8379 9.1743 20.8379 9.7832C20.8379 10.316 20.6491 10.8284 20.3096 11.2344L20.1543 11.4014L15.1514 16.3008V16.3018C14.6713 16.7703 14.0716 17.1026 13.417 17.2646H13.416L12.0039 17.6113C11.8024 17.6608 11.5909 17.6578 11.3906 17.6035C11.1906 17.5492 11.0069 17.4452 10.8584 17.2998C10.7098 17.1543 10.6017 16.9721 10.5449 16.7715C10.4882 16.5707 10.4854 16.3584 10.5371 16.1562V16.1553L10.8916 14.7734L10.9619 14.5332C11.1443 13.9798 11.4574 13.4762 11.8779 13.0654L16.8809 8.16504C17.3167 7.73816 17.9056 7.50001 18.5176 7.5Z" fill="#10B981" stroke="#F3FBF8"/>
</svg>
