<svg width="17" height="14" viewBox="0 0 17 14" fill="none" xmlns="http://www.w3.org/2000/svg">
<path d="M4.78125 9C4.78125 9.27614 5.0191 9.5 5.3125 9.5C5.6059 9.5 5.84375 9.27614 5.84375 9V8.5H11.1562V9C11.1562 9.27614 11.3941 9.5 11.6875 9.5C11.9809 9.5 12.2188 9.27614 12.2188 9V8.5H17V11.667C16.9999 12.2857 16.7311 12.8789 16.2529 13.3164C15.7748 13.7539 15.1264 14 14.4502 14H2.5498C1.87358 14 1.22524 13.7539 0.74707 13.3164C0.268936 12.8789 9.41384e-05 12.2857 0 11.667V8.5H4.78125V9ZM9.34961 0C10.0259 0 10.6751 0.246009 11.1533 0.683594C11.6313 1.12108 11.9003 1.71437 11.9004 2.33301V3.11133H14.4502C15.1264 3.11138 15.7748 3.35738 16.2529 3.79492C16.7311 4.23247 17 4.82558 17 5.44434V7.5H0V5.44434C3.14274e-05 4.82558 0.268937 4.23247 0.74707 3.79492C1.22524 3.35738 1.87357 3.11138 2.5498 3.11133H5.09961V2.33301C5.0997 1.71437 5.36867 1.12108 5.84668 0.683594C6.3249 0.246009 6.97409 0 7.65039 0H9.34961ZM7.65039 1.55566C7.42496 1.55566 7.20823 1.63735 7.04883 1.7832C6.88951 1.92899 6.7999 2.12685 6.7998 2.33301V3.11133H10.2002V2.33301C10.2001 2.12685 10.1105 1.92899 9.95117 1.7832C9.79177 1.63735 9.57504 1.55566 9.34961 1.55566H7.65039Z" fill="#10B981"/>
</svg>
