<svg width="18" height="18" viewBox="0 0 18 18" fill="none" xmlns="http://www.w3.org/2000/svg">
<path d="M0.25 9.62501V15.875C0.25 16.9088 1.09125 17.75 2.125 17.75H4V7.75001H2.125C1.09125 7.75001 0.25 8.59126 0.25 9.62501ZM17.2138 7.51876C16.9828 7.2013 16.6796 6.94335 16.3292 6.76621C15.9788 6.58908 15.5913 6.49783 15.1987 6.50001H10.9075L11.4875 3.60001C11.5689 3.1937 11.5591 2.77439 11.4588 2.37233C11.3585 1.97027 11.1702 1.59548 10.9075 1.27501C10.6455 0.95398 10.3152 0.695404 9.94071 0.518094C9.5662 0.340783 9.15687 0.249199 8.7425 0.250005C8.1875 0.250005 7.69375 0.622505 7.55375 1.11626L6.97375 2.72376C6.52074 3.97646 5.94371 5.18078 5.25125 6.31876V17.75H13.2475C13.7808 17.7519 14.3007 17.5824 14.7303 17.2664C15.16 16.9504 15.4767 16.5047 15.6337 15.995L17.5863 9.745C17.7051 9.37097 17.7333 8.97403 17.6686 8.58694C17.6038 8.19986 17.4479 7.83372 17.2138 7.51876Z" fill="#00B768"/>
</svg>
