<svg width="14" height="15" viewBox="0 0 14 15" fill="none" xmlns="http://www.w3.org/2000/svg">
<path d="M7.24456 14.1624L7.23737 14.1637L7.1909 14.1866L7.17782 14.1893L7.16866 14.1866L7.1222 14.1637C7.11522 14.1615 7.10998 14.1626 7.10649 14.167L7.10387 14.1735L7.09275 14.4536L7.09602 14.4667L7.10256 14.4752L7.17062 14.5236L7.18043 14.5263L7.18829 14.5236L7.25634 14.4752L7.2642 14.4647L7.26681 14.4536L7.25569 14.1742C7.25394 14.1672 7.25024 14.1633 7.24456 14.1624ZM7.41797 14.0885L7.40947 14.0898L7.28841 14.1506L7.28186 14.1572L7.2799 14.1644L7.29168 14.4458L7.29495 14.4536L7.30019 14.4582L7.43172 14.5191C7.44001 14.5212 7.44633 14.5195 7.45069 14.5138L7.45331 14.5047L7.43106 14.1029C7.42888 14.095 7.42452 14.0902 7.41797 14.0885ZM6.95009 14.0898C6.94721 14.088 6.94376 14.0875 6.94047 14.0882C6.93718 14.0889 6.9343 14.0909 6.93243 14.0937L6.9285 14.1029L6.90625 14.5047C6.90669 14.5125 6.91039 14.5177 6.91737 14.5204L6.92719 14.5191L7.05872 14.4582L7.06526 14.453L7.06788 14.4458L7.07901 14.1644L7.07704 14.1565L7.0705 14.15L6.95009 14.0898Z" fill="#4E5961"/>
<path d="M6.85629 0C10.4704 0 13.4001 2.92966 13.4001 6.54379C13.4001 10.1579 10.4704 13.0876 6.85629 13.0876C3.24216 13.0876 0.3125 10.1579 0.3125 6.54379C0.3125 2.92966 3.24216 0 6.85629 0ZM6.85629 1.30876C5.46788 1.30876 4.13632 1.86031 3.15456 2.84206C2.17281 3.82382 1.62126 5.15538 1.62126 6.54379C1.62126 7.93221 2.17281 9.26376 3.15456 10.2455C4.13632 11.2273 5.46788 11.7788 6.85629 11.7788C8.24471 11.7788 9.57626 11.2273 10.558 10.2455C11.5398 9.26376 12.0913 7.93221 12.0913 6.54379C12.0913 5.15538 11.5398 3.82382 10.558 2.84206C9.57626 1.86031 8.24471 1.30876 6.85629 1.30876ZM6.85629 2.61752C7.01657 2.61754 7.17127 2.67638 7.29104 2.78289C7.41082 2.88939 7.48734 3.03616 7.50609 3.19533L7.51067 3.2719V6.27288L9.28208 8.04428C9.39944 8.16205 9.46758 8.32006 9.47265 8.48624C9.47773 8.65242 9.41936 8.8143 9.3094 8.939C9.19944 9.06371 9.04614 9.14188 8.88063 9.15765C8.71513 9.17341 8.54982 9.12559 8.4183 9.02389L8.35678 8.96958L6.39365 7.00644C6.29194 6.90465 6.22662 6.77217 6.2078 6.62952L6.20191 6.54379V3.2719C6.20191 3.09834 6.27086 2.9319 6.39358 2.80918C6.5163 2.68646 6.68274 2.61752 6.85629 2.61752Z" fill="#1E2B33"/>
</svg>
