<svg width="19" height="19" viewBox="0 0 19 19" fill="none" xmlns="http://www.w3.org/2000/svg">
<path d="M9.2291 11.5363C10.5034 11.5363 11.5363 10.5034 11.5363 9.2291C11.5363 7.95486 10.5034 6.92188 9.2291 6.92188C7.95486 6.92188 6.92188 7.95486 6.92188 9.2291C6.92188 10.5034 7.95486 11.5363 9.2291 11.5363Z" fill="#1E2B33"/>
<path d="M17.8475 9.03353C17.1691 7.27868 15.9913 5.76108 14.4598 4.6683C12.9283 3.57552 11.1101 2.95547 9.22999 2.88477C7.3499 2.95547 5.53173 3.57552 4.00019 4.6683C2.46866 5.76108 1.29091 7.27868 0.612488 9.03353C0.566671 9.16026 0.566671 9.29903 0.612488 9.42576C1.29091 11.1806 2.46866 12.6982 4.00019 13.791C5.53173 14.8838 7.3499 15.5038 9.22999 15.5745C11.1101 15.5038 12.9283 14.8838 14.4598 13.791C15.9913 12.6982 17.1691 11.1806 17.8475 9.42576C17.8933 9.29903 17.8933 9.16026 17.8475 9.03353ZM9.22999 12.9789C8.48846 12.9789 7.76358 12.759 7.14702 12.347C6.53046 11.9351 6.04991 11.3495 5.76614 10.6644C5.48237 9.97934 5.40812 9.22549 5.55278 8.4982C5.69745 7.77092 6.05453 7.10287 6.57887 6.57853C7.10321 6.05419 7.77127 5.69711 8.49855 5.55244C9.22583 5.40777 9.97968 5.48202 10.6648 5.76579C11.3499 6.04957 11.9354 6.53012 12.3474 7.14668C12.7593 7.76324 12.9792 8.48812 12.9792 9.22965C12.9777 10.2235 12.5822 11.1763 11.8794 11.8791C11.1766 12.5819 10.2239 12.9774 9.22999 12.9789Z" fill="#1E2B33"/>
</svg>
