<svg width="17" height="16" viewBox="0 0 17 16" fill="none" xmlns="http://www.w3.org/2000/svg">
<g clip-path="url(#clip0_3974_117166)">
<path d="M5.03605 0C5.19074 0 5.33908 0.060194 5.44846 0.16734C5.55784 0.274486 5.61928 0.419807 5.61928 0.571335V1.14267H7.95221V0.571335C7.95221 0.419807 8.01366 0.274486 8.12304 0.16734C8.23241 0.060194 8.38076 0 8.53544 0C8.69013 0 8.83848 0.060194 8.94785 0.16734C9.05723 0.274486 9.11868 0.419807 9.11868 0.571335V1.14267H11.4516V0.571335C11.4516 0.419807 11.5131 0.274486 11.6224 0.16734C11.7318 0.060194 11.8802 0 12.0348 0C12.1895 0 12.3379 0.060194 12.4472 0.16734C12.5566 0.274486 12.6181 0.419807 12.6181 0.571335V1.14267C13.0821 1.14267 13.5272 1.32325 13.8553 1.64469C14.1834 1.96613 14.3678 2.40209 14.3678 2.85667V5.75448C13.7621 5.85739 13.2038 6.14161 12.7697 6.56806L11.2055 8.10152C11.1067 8.03395 10.9889 7.99802 10.8684 7.99868H6.20252C6.04783 7.99868 5.89949 8.05888 5.79011 8.16602C5.68073 8.27317 5.61928 8.41849 5.61928 8.57002C5.61928 8.72155 5.68073 8.86687 5.79011 8.97401C5.89949 9.08116 6.04783 9.14135 6.20252 9.14135H10.144L7.76791 11.4678C7.62249 11.611 7.48796 11.7634 7.36432 11.9249C7.34617 11.7872 7.27742 11.6606 7.17094 11.5689C7.06446 11.4772 6.92752 11.4267 6.78575 11.4267H6.20252C6.04783 11.4267 5.89949 11.4869 5.79011 11.594C5.68073 11.7012 5.61928 11.8465 5.61928 11.998C5.61928 12.1496 5.68073 12.2949 5.79011 12.402C5.89949 12.5092 6.04783 12.5694 6.20252 12.5694H6.78575C6.84796 12.5695 6.90978 12.5598 6.96888 12.5408C6.81299 12.8371 6.69244 13.1499 6.60961 13.4732L6.25617 14.857C6.15825 15.2359 6.18687 15.6356 6.33783 15.9974H4.45282C3.98877 15.9974 3.54373 15.8168 3.2156 15.4953C2.88747 15.1739 2.70312 14.7379 2.70312 14.2834V2.85667C2.70312 2.40209 2.88747 1.96613 3.2156 1.64469C3.54373 1.32325 3.98877 1.14267 4.45282 1.14267V0.571335C4.45282 0.419807 4.51427 0.274486 4.62365 0.16734C4.73302 0.060194 4.88137 0 5.03605 0ZM5.61928 5.14201C5.61928 5.29354 5.68073 5.43886 5.79011 5.54601C5.89949 5.65315 6.04783 5.71335 6.20252 5.71335H10.8684C11.0231 5.71335 11.1714 5.65315 11.2808 5.54601C11.3902 5.43886 11.4516 5.29354 11.4516 5.14201C11.4516 4.99048 11.3902 4.84516 11.2808 4.73802C11.1714 4.63087 11.0231 4.57068 10.8684 4.57068H6.20252C6.04783 4.57068 5.89949 4.63087 5.79011 4.73802C5.68073 4.84516 5.61928 4.99048 5.61928 5.14201ZM13.5956 7.37593C13.937 7.04151 14.4 6.85363 14.8828 6.85363C15.3655 6.85363 15.8286 7.04151 16.17 7.37593C16.5113 7.71035 16.7031 8.16392 16.7031 8.63687C16.7031 9.10981 16.5113 9.56338 16.17 9.8978L11.167 14.7976C10.7511 15.2034 10.2313 15.4919 9.66225 15.6329L8.24966 15.9791C8.1304 16.0084 8.00544 16.0069 7.88694 15.9748C7.76845 15.9426 7.66047 15.881 7.57354 15.7958C7.4866 15.7107 7.42367 15.6049 7.39089 15.4888C7.35811 15.3728 7.35659 15.2503 7.38648 15.1335L7.74108 13.7509C7.88339 13.1921 8.17734 12.6825 8.5926 12.2768L13.5956 7.37593Z" fill="#1E2B33"/>
</g>
<defs>
<clipPath id="clip0_3974_117166">
<rect width="16" height="16" fill="white" transform="translate(0.703125)"/>
</clipPath>
</defs>
</svg>
