<svg width="14" height="16" viewBox="0 0 14 16" fill="none" xmlns="http://www.w3.org/2000/svg">
<path d="M2.33293 0C2.48761 0 2.63596 0.060194 2.74534 0.16734C2.85471 0.274486 2.91616 0.419807 2.91616 0.571335V1.14267H5.24909V0.571335C5.24909 0.419807 5.31054 0.274486 5.41991 0.16734C5.52929 0.060194 5.67764 0 5.83232 0C5.987 0 6.13535 0.060194 6.24473 0.16734C6.3541 0.274486 6.41555 0.419807 6.41555 0.571335V1.14267H8.74848V0.571335C8.74848 0.419807 8.80993 0.274486 8.9193 0.16734C9.02868 0.060194 9.17703 0 9.33171 0C9.48639 0 9.63474 0.060194 9.74412 0.16734C9.8535 0.274486 9.91494 0.419807 9.91494 0.571335V1.14267C10.379 1.14267 10.824 1.32325 11.1522 1.64469C11.4803 1.96613 11.6646 2.40209 11.6646 2.85667V5.75448C11.0589 5.85739 10.5006 6.14161 10.0666 6.56806L8.50236 8.10152C8.40353 8.03395 8.28576 7.99802 8.16525 7.99868H3.49939C3.34471 7.99868 3.19636 8.05888 3.08698 8.16602C2.97761 8.27317 2.91616 8.41849 2.91616 8.57002C2.91616 8.72155 2.97761 8.86687 3.08698 8.97401C3.19636 9.08116 3.34471 9.14135 3.49939 9.14135H7.44087L5.06479 11.4678C4.91937 11.611 4.78483 11.7634 4.66119 11.9249C4.64304 11.7872 4.5743 11.6606 4.46782 11.5689C4.36133 11.4772 4.2244 11.4267 4.08262 11.4267H3.49939C3.34471 11.4267 3.19636 11.4869 3.08698 11.594C2.97761 11.7012 2.91616 11.8465 2.91616 11.998C2.91616 12.1496 2.97761 12.2949 3.08698 12.402C3.19636 12.5092 3.34471 12.5694 3.49939 12.5694H4.08262C4.14483 12.5695 4.20666 12.5598 4.26576 12.5408C4.10987 12.8371 3.98932 13.1499 3.90649 13.4732L3.55305 14.857C3.45513 15.2359 3.48375 15.6356 3.6347 15.9974H1.7497C1.28565 15.9974 0.840606 15.8168 0.512474 15.4953C0.184342 15.1739 0 14.7379 0 14.2834V2.85667C0 2.40209 0.184342 1.96613 0.512474 1.64469C0.840606 1.32325 1.28565 1.14267 1.7497 1.14267V0.571335C1.7497 0.419807 1.81114 0.274486 1.92052 0.16734C2.0299 0.060194 2.17825 0 2.33293 0ZM2.91616 5.14201C2.91616 5.29354 2.97761 5.43886 3.08698 5.54601C3.19636 5.65315 3.34471 5.71335 3.49939 5.71335H8.16525C8.31993 5.71335 8.46828 5.65315 8.57766 5.54601C8.68703 5.43886 8.74848 5.29354 8.74848 5.14201C8.74848 4.99048 8.68703 4.84516 8.57766 4.73802C8.46828 4.63087 8.31993 4.57068 8.16525 4.57068H3.49939C3.34471 4.57068 3.19636 4.63087 3.08698 4.73802C2.97761 4.84516 2.91616 4.99048 2.91616 5.14201ZM10.8924 7.37593C11.2338 7.04151 11.6968 6.85363 12.1796 6.85363C12.6624 6.85363 13.1254 7.04151 13.4668 7.37593C13.8082 7.71035 14 8.16392 14 8.63687C14 9.10981 13.8082 9.56338 13.4668 9.8978L8.46386 14.7976C8.04802 15.2034 7.52821 15.4919 6.95912 15.6329L5.54654 15.9791C5.42728 16.0084 5.30231 16.0069 5.18382 15.9748C5.06532 15.9426 4.95735 15.881 4.87041 15.7958C4.78347 15.7107 4.72055 15.6049 4.68777 15.4888C4.65498 15.3728 4.65346 15.2503 4.68335 15.1335L5.03796 13.7509C5.18027 13.1921 5.47422 12.6825 5.88948 12.2768L10.8924 7.37593Z" fill="#F05052"/>
</svg>
