<svg width="18" height="16" viewBox="0 0 18 16" fill="none" xmlns="http://www.w3.org/2000/svg">
<path d="M2.2 14.2222C1.7325 14.2222 1.33243 14.0483 0.9998 13.7004C0.667167 13.3526 0.500567 12.9339 0.5 12.4444V1.77778C0.5 1.28889 0.6666 0.870518 0.9998 0.522667C1.333 0.174815 1.73307 0.000592592 2.2 0H15.8C16.2675 0 16.6678 0.174222 17.001 0.522667C17.3342 0.871111 17.5006 1.28948 17.5 1.77778V12.4444C17.5 12.9333 17.3337 13.352 17.001 13.7004C16.6684 14.0489 16.2681 14.2228 15.8 14.2222H12.4V15.1111C12.4 15.363 12.3184 15.5742 12.1552 15.7449C11.992 15.9156 11.7903 16.0006 11.55 16H6.45C6.20917 16 6.00743 15.9147 5.8448 15.744C5.68217 15.5733 5.60057 15.3624 5.6 15.1111V14.2222H2.2Z" fill="#212529"/>
<path d="M12.3996 10.6658H5.59961V10.1769C5.59961 9.51143 5.91128 8.98195 6.53461 8.58847C7.15794 8.19499 7.97961 7.99854 8.99961 7.99914C10.0196 7.99973 10.8413 8.19617 11.4646 8.58847C12.0879 8.98077 12.3996 9.51025 12.3996 10.1769V10.6658Z" fill="white"/>
<path d="M10.2007 6.58847C9.86746 6.93632 9.46711 7.11025 8.99961 7.11025C8.53438 7.11262 8.13431 6.93869 7.79941 6.58847C7.46451 6.23825 7.29791 5.81958 7.29961 5.33247C7.30131 4.84536 7.46791 4.42699 7.79941 4.07736C8.13091 3.72773 8.53098 3.55351 8.99961 3.55469C9.46824 3.55588 9.86859 3.7301 10.2007 4.07736C10.5327 4.42462 10.699 4.84299 10.6996 5.33247C10.7002 5.82195 10.5339 6.24062 10.2007 6.58847Z" fill="white"/>
</svg>
