<svg width="17" height="17" viewBox="0 0 17 17" fill="none" xmlns="http://www.w3.org/2000/svg">
<path d="M15.9746 9.14795L16.9277 3.92139C16.9444 3.83162 16.9403 3.73925 16.916 3.65126C16.8916 3.56328 16.8475 3.482 16.7871 3.41357C16.7294 3.34293 16.6567 3.28597 16.5743 3.24679C16.4919 3.20762 16.4018 3.1872 16.3105 3.18701H3.70898L3.32617 1.08545C3.27329 0.798531 3.12172 0.539148 2.89771 0.352233C2.67369 0.165319 2.39136 0.0626499 2.09961 0.0620117H0.685547C0.519787 0.0620117 0.360815 0.12786 0.243605 0.24507C0.126395 0.36228 0.0605469 0.521251 0.0605469 0.687012C0.0605469 0.852772 0.126395 1.01174 0.243605 1.12895C0.360815 1.24616 0.519787 1.31201 0.685547 1.31201H2.09961L4.24023 13.1089C3.93503 13.3777 3.71082 13.7263 3.59277 14.1155C3.47473 14.5047 3.46753 14.9191 3.57198 15.3122C3.67643 15.7053 3.8884 16.0614 4.18408 16.3407C4.47975 16.62 4.84743 16.8113 5.24582 16.8931C5.64421 16.975 6.05754 16.9442 6.43938 16.8041C6.82122 16.6641 7.15645 16.4203 7.40743 16.1003C7.65841 15.7803 7.8152 15.3966 7.86019 14.9924C7.90518 14.5882 7.83658 14.1794 7.66211 13.812H11.834C11.6308 14.2403 11.5723 14.7229 11.6672 15.1873C11.762 15.6517 12.0052 16.0727 12.36 16.387C12.7148 16.7013 13.1621 16.8918 13.6345 16.9299C14.107 16.968 14.579 16.8517 14.9796 16.5983C15.3802 16.345 15.6877 15.9684 15.8558 15.5252C16.0238 15.082 16.0434 14.5962 15.9115 14.1409C15.7797 13.6857 15.5035 13.2855 15.1246 13.0008C14.7457 12.716 14.2845 12.562 13.8105 12.562H5.41211L5.06836 10.687H14.1309C14.5697 10.6868 14.9946 10.5327 15.3315 10.2514C15.6684 9.9702 15.896 9.5797 15.9746 9.14795ZM6.62305 14.7495C6.62305 14.9349 6.56806 15.1162 6.46505 15.2704C6.36204 15.4245 6.21562 15.5447 6.04431 15.6156C5.87301 15.6866 5.68451 15.7052 5.50265 15.669C5.32079 15.6328 5.15375 15.5435 5.02263 15.4124C4.89152 15.2813 4.80223 15.1143 4.76606 14.9324C4.72989 14.7506 4.74845 14.5621 4.81941 14.3907C4.89037 14.2194 5.01053 14.073 5.1647 13.97C5.31887 13.867 5.50013 13.812 5.68555 13.812C5.93419 13.812 6.17264 13.9108 6.34846 14.0866C6.52427 14.2624 6.62305 14.5009 6.62305 14.7495ZM14.748 14.7495C14.748 14.9349 14.6931 15.1162 14.59 15.2704C14.487 15.4245 14.3406 15.5447 14.1693 15.6156C13.998 15.6866 13.8095 15.7052 13.6277 15.669C13.4458 15.6328 13.2787 15.5435 13.1476 15.4124C13.0165 15.2813 12.9272 15.1143 12.8911 14.9324C12.8549 14.7506 12.8735 14.5621 12.9444 14.3907C13.0154 14.2194 13.1355 14.073 13.2897 13.97C13.4439 13.867 13.6251 13.812 13.8105 13.812C14.0592 13.812 14.2976 13.9108 14.4735 14.0866C14.6493 14.2624 14.748 14.5009 14.748 14.7495ZM3.93555 4.43701H15.5605L14.748 8.92139C14.7223 9.06622 14.6463 9.19734 14.5334 9.29165C14.4205 9.38597 14.278 9.43744 14.1309 9.43701H4.8418L3.93555 4.43701Z" fill="#EBEEF0"/>
</svg>
