<svg width="15" height="16" viewBox="0 0 15 16" fill="none" xmlns="http://www.w3.org/2000/svg">
<path d="M1.66667 15.5C1.20833 15.5 0.815835 15.3367 0.489168 15.01C0.162501 14.6833 -0.000554141 14.2911 1.41483e-06 13.8333V2.16667C1.41483e-06 1.70833 0.163335 1.31583 0.490001 0.989168C0.816668 0.662501 1.20889 0.499446 1.66667 0.500001H13.3333C13.7917 0.500001 14.1842 0.663335 14.5108 0.990001C14.8375 1.31667 15.0006 1.70889 15 2.16667V13.8333C15 14.2917 14.8367 14.6842 14.51 15.0108C14.1833 15.3375 13.7911 15.5006 13.3333 15.5H1.66667ZM1.66667 13.8333H6.66667V2.16667H1.66667V13.8333ZM8.33333 13.8333H13.3333V8H8.33333V13.8333ZM8.33333 6.33333H13.3333V2.16667H8.33333V6.33333Z" fill="#EBEEF0"/>
</svg>
