<svg width="12" height="16" viewBox="0 0 12 16" fill="none" xmlns="http://www.w3.org/2000/svg">
<path d="M7.42773 1.57153V4.42866C7.42773 4.6181 7.50299 4.79978 7.63694 4.93373C7.7709 5.06769 7.95258 5.14294 8.14202 5.14294H10.9991" stroke="white" stroke-width="1.3" stroke-linecap="round" stroke-linejoin="round"/>
<path d="M3.85713 11.5715H8.14282M3.85713 8.71435H8.14282M9.57138 14.4286H2.42856C2.04968 14.4286 1.68632 14.2781 1.41842 14.0102C1.15051 13.7423 1 13.3789 1 13V3.0001C1 2.62122 1.15051 2.25786 1.41842 1.98995C1.68632 1.72204 2.04968 1.57153 2.42856 1.57153H7.42853L10.9999 5.14294V13C10.9999 13.3789 10.8494 13.7423 10.5815 14.0102C10.3136 14.2781 9.95026 14.4286 9.57138 14.4286Z" stroke="white" stroke-width="1.3" stroke-linecap="round" stroke-linejoin="round"/>
</svg>
