<svg width="19" height="18" viewBox="0 0 19 18" fill="none" xmlns="http://www.w3.org/2000/svg">
<path d="M14.9231 17.9998C14.1387 17.9998 13.0367 17.7162 11.3867 16.7945C9.38015 15.6695 7.82813 14.6308 5.83246 12.6408C3.90831 10.7182 2.97196 9.47345 1.66147 7.08922C0.180989 4.39722 0.433362 2.98614 0.715473 2.38305C1.05143 1.66224 1.54734 1.23112 2.18832 0.803208C2.55239 0.56472 2.93767 0.360281 3.33927 0.192487C3.37946 0.17521 3.41683 0.158736 3.45018 0.14387C3.64911 0.0542707 3.95051 -0.0811327 4.33228 0.0635119C4.58707 0.159138 4.81453 0.35481 5.17058 0.706377C5.90077 1.42639 6.89861 3.02993 7.26672 3.81744C7.51387 4.34821 7.67743 4.69857 7.67783 5.09152C7.67783 5.55157 7.44636 5.90635 7.16545 6.28926C7.11281 6.36118 7.06056 6.42988 7.00993 6.49658C6.70411 6.89837 6.637 7.01449 6.6812 7.22181C6.77082 7.63847 7.43912 8.8788 8.53743 9.97448C9.63573 11.0702 10.8405 11.6962 11.2589 11.7853C11.4751 11.8316 11.5936 11.7616 12.0084 11.445C12.0678 11.3996 12.1289 11.3526 12.1928 11.3056C12.6212 10.987 12.9596 10.7616 13.4089 10.7616H13.4113C13.8023 10.7616 14.1371 10.9311 14.6916 11.2108C15.415 11.5756 17.0671 12.5604 17.7916 13.2913C18.1441 13.6464 18.3406 13.8731 18.4366 14.1274C18.5813 14.5103 18.4451 14.8104 18.3563 15.0113C18.3414 15.0447 18.3249 15.0812 18.3076 15.1218C18.1385 15.5226 17.9328 15.907 17.6932 16.2701C17.266 16.909 16.8332 17.4036 16.1106 17.7399C15.7396 17.9154 15.3335 18.0043 14.9231 17.9998Z" fill="#10B981"/>
</svg>
