<svg width="30" height="19" viewBox="0 0 30 19" fill="none" xmlns="http://www.w3.org/2000/svg">
<path d="M24.0566 0C24.303 0.0435613 24.5602 0.0544513 24.796 0.130684C25.0317 0.196025 25.2568 0.315819 25.4711 0.435613C25.6533 0.544516 25.7604 0.718761 25.8461 0.925677C25.9211 1.11081 26.0069 1.28506 26.114 1.44841C26.2426 1.65533 26.2748 1.87314 26.2962 2.10183C26.3176 2.33053 26.3176 2.57012 26.3498 2.79881C26.3605 2.90772 26.4034 3.00573 26.4569 3.10374C26.5641 3.31066 26.5855 3.52846 26.5641 3.75716C26.5212 4.17099 26.3605 4.55215 26.114 4.88975C25.9962 5.04222 25.8997 5.21646 25.8247 5.4016C25.6854 5.70653 25.5139 6.00057 25.2889 6.25105C24.5174 7.07871 23.3815 7.05693 22.6421 6.19659C22.5028 6.04413 22.4063 5.85899 22.2992 5.67386C22.1277 5.36893 21.967 5.064 21.7848 4.76996C21.5276 4.36702 21.4098 3.9423 21.4312 3.47401C21.4419 3.33244 21.4848 3.21264 21.5598 3.09285C21.6241 2.99484 21.6562 2.86415 21.6669 2.74436C21.6884 2.50477 21.6884 2.26519 21.6991 2.0256C21.7205 1.25239 22.0956 0.696981 22.7385 0.304929C23.0386 0.130684 23.3708 0.043561 23.7137 0.0217803C23.7565 0.0217803 23.7994 0.0108903 23.8423 0C23.8958 0 23.9816 0 24.0566 0Z" fill="white"/>
<path d="M13.9485 16.3163C14.0176 15.9666 14.0867 15.6169 14.1558 15.2673C14.1696 15.219 14.1696 15.1828 14.1834 15.1346C14.2111 14.9417 14.2111 14.7608 14.1143 14.5558C13.9623 14.2062 13.907 13.8203 13.8103 13.4586C13.7826 13.3259 13.7826 13.1933 13.7688 13.0607C13.755 12.9522 13.8103 12.9039 13.9208 12.9039C13.9761 12.9039 14.0314 12.8919 14.0729 12.8919C14.7362 12.8919 15.3858 12.8919 16.0492 12.9039C16.0907 12.9039 16.1321 12.916 16.1736 12.916C16.2289 13.2295 16.146 13.5189 16.0769 13.8203C15.9939 14.1218 15.8695 14.4232 15.7728 14.7126C15.7452 14.7729 15.7452 14.8452 15.759 14.9176C15.8419 15.3637 15.9248 15.8099 16.0216 16.256C16.0216 16.2801 16.0354 16.2922 16.063 16.3404C16.1183 16.268 16.1598 16.2078 16.2012 16.1475C16.6297 15.3758 16.9752 14.5679 17.2654 13.76C17.5004 13.0848 17.7215 12.3975 17.9565 11.7102C17.9703 11.6861 17.9703 11.662 17.9841 11.6499C18.0532 11.4449 18.0808 11.4208 18.3158 11.5052C19.2832 11.879 20.2507 12.2407 21.2043 12.6266C22.1441 13.0124 22.8075 13.6515 23.2498 14.4594C23.692 15.2673 23.9546 16.1113 23.9961 16.9915C24.0099 17.293 23.9961 17.3532 23.6782 17.4497C23.0425 17.6306 22.4067 17.8114 21.7571 17.9441C20.0019 18.2938 18.2191 18.4264 16.4362 18.4264C15.0127 18.4264 13.5891 18.4385 12.1656 18.3902C10.3689 18.3299 8.58606 18.1129 6.85848 17.6306C6.60971 17.5582 6.38858 17.4618 6.15363 17.3653C6.04306 17.3171 5.98778 17.2447 6.0016 17.1362C6.08452 15.8701 6.44386 14.6764 7.35602 13.6515C7.85357 13.0968 8.50314 12.711 9.23563 12.4216C10.0649 12.0961 10.8941 11.7946 11.7233 11.4811C11.9721 11.3846 11.9859 11.4088 12.055 11.6379C12.4006 12.6628 12.7461 13.6997 13.1331 14.7247C13.3127 15.207 13.5891 15.6531 13.8103 16.1234C13.8517 16.1957 13.8932 16.256 13.9347 16.3283C13.907 16.3163 13.9208 16.3163 13.9485 16.3163Z" fill="white"/>
<path d="M14.8634 0.427734C15.772 0.458625 16.6471 0.613076 17.4548 0.968314C18.0269 1.21544 18.4308 1.61701 18.6327 2.17304C18.7168 2.37382 18.801 2.57461 18.9524 2.74451C19.289 3.17697 19.4236 3.65577 19.4741 4.16546C19.5077 4.55159 19.5246 4.93772 19.5582 5.32385C19.575 5.52463 19.6255 5.70997 19.777 5.89532C19.9789 6.12699 20.0126 6.42045 19.9957 6.71391C19.9789 7.54795 19.676 8.30476 19.1207 8.9689C18.8515 9.29325 18.6495 9.6176 18.4813 9.98828C17.9764 11.1003 17.1182 11.9035 15.8562 12.2896C14.8129 12.614 13.8537 12.3359 12.9955 11.7799C12.3056 11.332 11.8849 10.6833 11.4979 10.0037C11.2959 9.63304 11.0772 9.23147 10.8079 8.89168C10.2695 8.22754 9.98339 7.48617 10.0002 6.65213C10.0002 6.29689 10.0675 5.9571 10.3536 5.67908C10.4377 5.60186 10.4377 5.44741 10.4546 5.33929C10.4714 4.90683 10.4714 4.48981 10.4882 4.05734C10.5723 2.25026 11.8849 0.8602 13.82 0.535852C14.1734 0.474072 14.5268 0.458625 14.8634 0.427734Z" fill="white"/>
<path d="M26.2209 6C26.9464 6.33214 27.6612 6.62143 28.3435 6.975C28.9499 7.28571 29.3506 7.81071 29.6105 8.44286C29.8163 8.925 29.9354 9.43929 29.9895 9.95357C30.022 10.2321 29.9895 10.3179 29.7188 10.4143C29.3939 10.5321 29.069 10.6286 28.7333 10.7143C27.7695 10.95 26.784 11.0464 25.7877 11.0786C25.0729 11.1107 24.3582 11.1214 23.6326 11.1429C23.5784 11.1429 23.5243 11.1321 23.481 11.1107C22.6687 10.6179 21.7916 10.2643 20.9252 9.91071C20.8385 9.87857 20.7519 9.83571 20.6653 9.80357C20.5678 9.77143 20.5461 9.70714 20.6003 9.62143C20.7844 9.31071 20.9577 8.98928 21.1526 8.68928C21.4992 8.15357 21.6833 7.58571 21.6616 6.95357C21.6508 6.79286 21.6291 6.63214 21.5966 6.47143C21.5858 6.38571 21.5858 6.32143 21.6724 6.28928C21.8457 6.225 22.019 6.16071 22.2031 6.09643C22.2897 6.06429 22.333 6.09643 22.3547 6.19286C22.4846 6.71786 22.6146 7.24286 22.777 7.75714C22.8962 8.14286 23.0478 8.50714 23.2211 8.87143C23.3185 9.06428 23.4701 9.24643 23.6326 9.39643C24.0008 9.73928 24.5206 9.72857 24.8996 9.39643C25.1812 9.15 25.3545 8.82857 25.4953 8.48571C25.7768 7.81071 25.9393 7.10357 26.1126 6.40714C26.145 6.28928 26.1775 6.16071 26.2209 6Z" fill="white"/>
<path d="M5.99357 0.00485625C6.44178 -0.0169969 6.87931 0.0704156 7.28484 0.27802C7.58364 0.430992 7.80775 0.660448 7.90379 0.999171C7.93581 1.09751 7.9785 1.19585 8.04253 1.28326C8.24529 1.55643 8.29865 1.86237 8.34133 2.19017C8.37335 2.43055 8.38402 2.67093 8.40536 2.90039C8.40536 2.93317 8.41604 2.97688 8.42671 3.00966C8.68283 3.56691 8.57611 4.10231 8.28797 4.61586C8.07454 4.99829 7.87178 5.38072 7.64767 5.75222C7.3382 6.29855 6.90066 6.69191 6.29237 6.82302C5.80148 6.93229 5.37461 6.76839 4.99043 6.4843C4.63826 6.22206 4.39281 5.87241 4.2114 5.46813C4.11535 5.2496 3.99796 5.042 3.85923 4.84532C3.58177 4.41918 3.40035 3.96027 3.43236 3.44672C3.44304 3.3156 3.51774 3.18448 3.5711 3.06429C3.60311 2.97688 3.6458 2.90039 3.6458 2.81298C3.67781 2.46333 3.66714 2.11368 3.7205 1.77496C3.88057 0.769715 4.65961 0.059489 5.65207 0.00485625C5.76946 -0.00607031 5.88685 0.00485625 5.99357 0.00485625Z" fill="white"/>
<path d="M3.90837 6C4.02036 6.43929 4.13235 6.84643 4.24434 7.26428C4.37872 7.76786 4.51311 8.28214 4.78188 8.74286C4.90506 8.94643 5.05065 9.15 5.21863 9.32143C5.61059 9.73929 6.11453 9.66429 6.47289 9.45C6.70807 9.31072 6.85365 9.10714 6.98804 8.89286C7.2792 8.36786 7.45838 7.78929 7.62637 7.22143C7.71596 6.87857 7.80555 6.53571 7.89514 6.19286C7.92873 6.075 7.98473 6.04286 8.09671 6.08571C8.2087 6.11786 8.33189 6.16071 8.44388 6.20357C8.39908 6.35357 8.34309 6.49286 8.32069 6.63214C8.2199 7.30714 8.38788 7.92857 8.73505 8.50714C8.92543 8.83929 9.1494 9.17143 9.35098 9.50357C9.47416 9.70714 9.46297 9.73928 9.22779 9.83571C8.71265 10.05 8.17511 10.2429 7.65996 10.4786C7.24561 10.6607 6.86485 10.8857 6.46169 11.0893C6.4057 11.1214 6.33851 11.1429 6.27132 11.1429C5.465 11.1214 4.65869 11.1 3.85238 11.0571C2.7437 10.9929 1.64622 10.8536 0.582336 10.5214C0.425553 10.4786 0.279969 10.4036 0.134385 10.3393C0.0447948 10.2964 0 10.2321 0 10.1357C0.100789 9.05357 0.380758 8.05714 1.25426 7.28571C1.60142 6.98571 2.00458 6.80357 2.41893 6.63214C2.91168 6.39643 3.40443 6.20357 3.90837 6Z" fill="white"/>
</svg>
