<svg width="22" height="21" viewBox="0 0 22 21" fill="none" xmlns="http://www.w3.org/2000/svg">
<path fill-rule="evenodd" clip-rule="evenodd" d="M17 2.25H11C10.4033 2.25 9.83097 2.48705 9.40901 2.90901C8.98705 3.33097 8.75 3.90326 8.75 4.5V6H11C12.1935 6 13.3381 6.47411 14.182 7.31802C15.0259 8.16193 15.5 9.30653 15.5 10.5V12.75H17C17.5967 12.75 18.169 12.5129 18.591 12.091C19.0129 11.669 19.25 11.0967 19.25 10.5V4.5C19.25 3.90326 19.0129 3.33097 18.591 2.90901C18.169 2.48705 17.5967 2.25 17 2.25ZM15.5 15H17C18.1935 15 19.3381 14.5259 20.182 13.682C21.0259 12.8381 21.5 11.6935 21.5 10.5V4.5C21.5 3.30653 21.0259 2.16193 20.182 1.31802C19.3381 0.474106 18.1935 0 17 0H11C9.80653 0 8.66193 0.474106 7.81802 1.31802C6.97411 2.16193 6.5 3.30653 6.5 4.5V6H5C3.80653 6 2.66193 6.47411 1.81802 7.31802C0.974106 8.16193 0.5 9.30653 0.5 10.5V16.5C0.5 17.6935 0.974106 18.8381 1.81802 19.682C2.66193 20.5259 3.80653 21 5 21H11C12.1935 21 13.3381 20.5259 14.182 19.682C15.0259 18.8381 15.5 17.6935 15.5 16.5V15ZM5 8.25H11C11.5967 8.25 12.169 8.48705 12.591 8.90901C13.0129 9.33097 13.25 9.90326 13.25 10.5V16.5C13.25 17.0967 13.0129 17.669 12.591 18.091C12.169 18.5129 11.5967 18.75 11 18.75H5C4.40326 18.75 3.83097 18.5129 3.40901 18.091C2.98705 17.669 2.75 17.0967 2.75 16.5V10.5C2.75 9.90326 2.98705 9.33097 3.40901 8.90901C3.83097 8.48705 4.40326 8.25 5 8.25Z" fill="#6C757D"/>
</svg>
