<svg width="18" height="17" viewBox="0 0 18 17" fill="none" xmlns="http://www.w3.org/2000/svg">
<path d="M8.99999 12.2984C8.85833 12.2984 8.72551 12.2765 8.60156 12.2326C8.4776 12.1886 8.36249 12.1132 8.25624 12.0063L4.43125 8.18125C4.21875 7.96875 4.11675 7.72083 4.12525 7.4375C4.13375 7.15417 4.23575 6.90625 4.43125 6.69375C4.64375 6.48125 4.89627 6.37075 5.18881 6.36225C5.48135 6.35375 5.73352 6.4554 5.94531 6.66719L7.93749 8.65938V1.0625C7.93749 0.761462 8.03949 0.509295 8.24349 0.306004C8.44749 0.102712 8.69966 0.000711997 8.99999 3.66379e-06C9.30033 -0.000704669 9.55285 0.101295 9.75756 0.306004C9.96226 0.510712 10.0639 0.762878 10.0625 1.0625V8.65938L12.0547 6.66719C12.2672 6.45469 12.5197 6.35269 12.8122 6.36119C13.1048 6.36969 13.3569 6.48054 13.5687 6.69375C13.7635 6.90625 13.8655 7.15417 13.8747 7.4375C13.8839 7.72083 13.7819 7.96875 13.5687 8.18125L9.74374 12.0063C9.63749 12.1125 9.52239 12.1879 9.39843 12.2326C9.27447 12.2772 9.14166 12.2991 8.99999 12.2984ZM2.625 17C2.04062 17 1.54054 16.7921 1.12475 16.3763C0.708958 15.9605 0.500708 15.4601 0.5 14.875V12.75C0.5 12.449 0.602 12.1968 0.806 11.9935C1.01 11.7902 1.26217 11.6882 1.5625 11.6875C1.86283 11.6868 2.11535 11.7888 2.32006 11.9935C2.52477 12.1982 2.62642 12.4504 2.625 12.75V14.875H15.375V12.75C15.375 12.449 15.477 12.1968 15.681 11.9935C15.885 11.7902 16.1372 11.6882 16.4375 11.6875C16.7378 11.6868 16.9903 11.7888 17.195 11.9935C17.3998 12.1982 17.5014 12.4504 17.5 12.75V14.875C17.5 15.4594 17.2921 15.9598 16.8763 16.3763C16.4605 16.7928 15.9601 17.0007 15.375 17H2.625Z" fill="white"/>
</svg>
