<svg width="23" height="18" viewBox="0 0 23 18" fill="none" xmlns="http://www.w3.org/2000/svg">
<path d="M20.3 0H2.7C1.49 0 0.511 1.0125 0.511 2.25L0.5 15.75C0.5 16.9875 1.49 18 2.7 18H20.3C21.51 18 22.5 16.9875 22.5 15.75V2.25C22.5 1.0125 21.51 0 20.3 0ZM19.86 4.78125L12.083 9.75375C11.731 9.97875 11.269 9.97875 10.917 9.75375L3.14 4.78125C3.0297 4.71793 2.93311 4.63237 2.85608 4.52976C2.77904 4.42715 2.72317 4.30963 2.69183 4.18429C2.6605 4.05896 2.65435 3.92843 2.67377 3.8006C2.69319 3.67276 2.73777 3.55029 2.80481 3.44059C2.87185 3.33089 2.95996 3.23624 3.0638 3.16237C3.16764 3.0885 3.28506 3.03695 3.40895 3.01084C3.53283 2.98472 3.66061 2.98459 3.78455 3.01044C3.90849 3.0363 4.02601 3.0876 4.13 3.16125L11.5 7.875L18.87 3.16125C18.974 3.0876 19.0915 3.0363 19.2155 3.01044C19.3394 2.98459 19.4672 2.98472 19.5911 3.01084C19.7149 3.03695 19.8324 3.0885 19.9362 3.16237C20.04 3.23624 20.1282 3.33089 20.1952 3.44059C20.2622 3.55029 20.3068 3.67276 20.3262 3.8006C20.3456 3.92843 20.3395 4.05896 20.3082 4.18429C20.2768 4.30963 20.221 4.42715 20.1439 4.52976C20.0669 4.63237 19.9703 4.71793 19.86 4.78125Z" fill="#FF9B10"/>
</svg>
