<svg width="15" height="15" viewBox="0 0 15 15" fill="none" xmlns="http://www.w3.org/2000/svg">
<path d="M7.08333 14.1667C3.17121 14.1667 0 10.9955 0 7.08333C0 3.17121 3.17121 0 7.08333 0C10.9955 0 14.1667 3.17192 14.1667 7.08333C14.1667 10.9948 10.9955 14.1667 7.08333 14.1667ZM7.08333 3.54167C6.89547 3.54167 6.7153 3.61629 6.58247 3.74913C6.44963 3.88197 6.375 4.06214 6.375 4.25V7.79167C6.375 7.97953 6.44963 8.1597 6.58247 8.29253C6.7153 8.42537 6.89547 8.5 7.08333 8.5C7.2712 8.5 7.45136 8.42537 7.5842 8.29253C7.71704 8.1597 7.79167 7.97953 7.79167 7.79167V4.25C7.79167 4.06214 7.71704 3.88197 7.5842 3.74913C7.45136 3.61629 7.2712 3.54167 7.08333 3.54167ZM7.08333 10.625C7.2712 10.625 7.45136 10.5504 7.5842 10.4175C7.71704 10.2847 7.79167 10.1045 7.79167 9.91667C7.79167 9.72881 7.71704 9.54864 7.5842 9.4158C7.45136 9.28296 7.2712 9.20833 7.08333 9.20833C6.89547 9.20833 6.7153 9.28296 6.58247 9.4158C6.44963 9.54864 6.375 9.72881 6.375 9.91667C6.375 10.1045 6.44963 10.2847 6.58247 10.4175C6.7153 10.5504 6.89547 10.625 7.08333 10.625Z" fill="#45B0FC"/>
</svg>
