<svg width="24" height="26" viewBox="0 0 24 26" fill="none" xmlns="http://www.w3.org/2000/svg">
<path fill-rule="evenodd" clip-rule="evenodd" d="M1.62459 1.20443C0.898437 1.93058 0.898438 3.09788 0.898438 5.43496V17.8267C0.898438 21.331 0.898437 23.0845 1.98767 24.1725C2.78198 24.968 3.93069 25.1824 5.85512 25.2406V21.5442C5.85512 21.2155 5.98568 20.9003 6.21807 20.668C6.45046 20.4356 6.76565 20.305 7.09429 20.305C7.42294 20.305 7.73813 20.4356 7.97052 20.668C8.20291 20.9003 8.33347 21.2155 8.33347 21.5442V25.2617H15.7685V21.5442C15.7685 21.2155 15.899 20.9003 16.1314 20.668C16.3638 20.4356 16.679 20.305 17.0077 20.305C17.3363 20.305 17.6515 20.4356 17.8839 20.668C18.1163 20.9003 18.2468 21.2155 18.2468 21.5442V25.2406C20.1713 25.1824 21.32 24.968 22.1143 24.1725C23.2035 23.0845 23.2035 21.331 23.2035 17.8267V5.43496C23.2035 3.09788 23.2035 1.93058 22.4774 1.20443C21.7512 0.478271 20.5839 0.478271 18.2468 0.478271H5.85512C3.51805 0.478271 2.35075 0.478271 1.62459 1.20443ZM7.09429 7.9133C6.76565 7.9133 6.45046 8.04385 6.21807 8.27624C5.98568 8.50863 5.85512 8.82382 5.85512 9.15247C5.85512 9.48112 5.98568 9.79631 6.21807 10.0287C6.45046 10.2611 6.76565 10.3916 7.09429 10.3916H17.0077C17.3363 10.3916 17.6515 10.2611 17.8839 10.0287C18.1163 9.79631 18.2468 9.48112 18.2468 9.15247C18.2468 8.82382 18.1163 8.50863 17.8839 8.27624C17.6515 8.04385 17.3363 7.9133 17.0077 7.9133H7.09429ZM7.09429 15.3483H17.0077C17.3363 15.3483 17.6515 15.2178 17.8839 14.9854C18.1163 14.753 18.2468 14.4378 18.2468 14.1092C18.2468 13.7805 18.1163 13.4653 17.8839 13.2329C17.6515 13.0005 17.3363 12.87 17.0077 12.87H7.09429C6.76565 12.87 6.45046 13.0005 6.21807 13.2329C5.98568 13.4653 5.85512 13.7805 5.85512 14.1092C5.85512 14.4378 5.98568 14.753 6.21807 14.9854C6.45046 15.2178 6.76565 15.3483 7.09429 15.3483Z" fill="#FC4E45"/>
</svg>
