<svg width="19" height="23" viewBox="0 0 19 23" fill="none" xmlns="http://www.w3.org/2000/svg">
<path d="M17.3751 6.12515H12.8751L12.874 1.62402L17.3751 6.12515Z" fill="#45B6FC"/>
<path d="M9.63184 0.507812C9.88288 0.537463 10.1162 0.651329 10.2949 0.830078C10.4737 1.00883 10.5875 1.24212 10.6172 1.49316L10.625 1.625V6.125L10.6309 6.29395C10.6712 6.82953 10.9011 7.33344 11.2803 7.71387C11.6595 8.09431 12.1627 8.32613 12.6982 8.36816L12.875 8.375H17.375L17.5068 8.38281C17.7579 8.41246 17.9912 8.52633 18.1699 8.70508C18.3487 8.88383 18.4625 9.11712 18.4922 9.36816L18.5 9.5V19.625C18.5 20.4859 18.1707 21.3141 17.5801 21.9404C16.9896 22.5666 16.1824 22.9436 15.3232 22.9941L15.125 23H3.875C3.01414 23 2.18591 22.6707 1.55957 22.0801C0.9334 21.4896 0.556416 20.6824 0.505859 19.8232L0.5 19.625V3.875C0.499953 3.01414 0.829345 2.18591 1.41992 1.55957C2.01043 0.933401 2.81756 0.556418 3.67676 0.505859L3.875 0.5H9.5L9.63184 0.507812ZM5.53613 11.6709V18.4268C5.5361 18.6151 5.51498 18.7658 5.48047 18.8848L5.44141 18.9941C5.39951 19.0908 5.3477 19.161 5.28809 19.2129L5.22461 19.2588C5.14153 19.3096 5.0221 19.3466 4.8457 19.3467C4.67893 19.3466 4.55491 19.3148 4.46094 19.2656C4.36896 19.2131 4.29532 19.1396 4.2373 19.0371C4.18404 18.9349 4.1462 18.7975 4.1416 18.6113L4.13184 18.2061H1.39941L1.39844 18.6201C1.39525 19.2834 1.53548 19.871 1.85059 20.3545H1.85254C2.15805 20.8197 2.57424 21.1686 3.08984 21.3955L3.09277 21.3975C3.59745 21.6145 4.15244 21.7187 4.74902 21.7188C5.41723 21.7186 6.02362 21.5919 6.55566 21.3242L6.75 21.2188C7.19097 20.9589 7.54716 20.6086 7.81152 20.1709C8.12053 19.664 8.26653 19.0767 8.2666 18.4268V11.6709H5.53613ZM9.02734 11.6709V21.5947H12.666C13.6431 21.5947 14.5072 21.4007 15.2432 20.9971L15.2441 20.998C15.9829 20.5942 16.5506 20.0102 16.9434 19.2578L16.9453 19.2588C17.3411 18.5063 17.5293 17.6229 17.5293 16.624C17.5293 15.6279 17.3393 14.7478 16.9434 13.998H16.9453C16.5528 13.2491 15.987 12.6687 15.2539 12.2676H15.252C14.5193 11.8642 13.6609 11.671 12.6924 11.6709H9.02734ZM4.68262 19.7539L4.8457 19.7627C4.87373 19.7627 4.90171 19.7602 4.92871 19.7588C4.90188 19.7602 4.87453 19.7637 4.84668 19.7637C4.74501 19.7637 4.64992 19.7523 4.56055 19.7334C4.60024 19.7413 4.64069 19.7495 4.68262 19.7539ZM4.44824 19.7051C4.44273 19.7033 4.4371 19.702 4.43164 19.7002C4.43713 19.702 4.4427 19.7034 4.44824 19.7051ZM12.7949 19.5273L12.5859 19.5322C12.7027 19.5322 12.8156 19.5261 12.9248 19.5176C12.8821 19.5209 12.8388 19.5253 12.7949 19.5273ZM14.0195 19.2295C14.104 19.1853 14.1845 19.1367 14.2598 19.082C14.1848 19.1369 14.1049 19.1863 14.0205 19.2305C13.972 19.2556 13.9214 19.2788 13.8701 19.3008L14.0195 19.2295ZM5.82324 19.1592C5.80576 19.1996 5.78502 19.2372 5.76367 19.2734L5.82227 19.1592H5.82324ZM12.5898 14.1484C13.1104 14.1484 13.5186 14.2409 13.832 14.4033L13.9424 14.4658C14.1889 14.6209 14.3807 14.8454 14.5205 15.1504L14.5225 15.1514C14.6867 15.5044 14.7803 15.9886 14.7803 16.624C14.7803 17.1857 14.7085 17.6298 14.5801 17.9707L14.5225 18.1104L14.5205 18.1113C14.3809 18.4157 14.1871 18.6402 13.9375 18.7979L13.8271 18.8613C13.5138 19.0237 13.1062 19.1171 12.5859 19.1172H11.7803V14.1484H12.5898ZM7.85156 12.0859L5.95215 12.0869V18.4268C5.95215 18.4878 5.94808 18.5466 5.94336 18.6035L5.95117 18.4268V12.0859H7.85156ZM14.8008 18.4717C14.7973 18.4776 14.7936 18.4834 14.79 18.4893C14.7935 18.4834 14.7973 18.4776 14.8008 18.4717ZM13.5508 13.8516L13.7168 13.9033C13.6519 13.8806 13.5846 13.8609 13.5156 13.8428C13.5273 13.8458 13.5392 13.8484 13.5508 13.8516ZM13.2295 12.1094C13.2897 12.1146 13.3493 12.1199 13.4082 12.127C13.3493 12.1201 13.2897 12.1144 13.2295 12.1094ZM12.6924 12.0859L13.0293 12.0938C13.0656 12.0956 13.1018 12.099 13.1377 12.1016C12.9928 12.0916 12.8442 12.0869 12.6924 12.0869H9.44238V12.0859H12.6924Z" fill="#45B6FC"/>
</svg>
