<svg width="18" height="23" viewBox="0 0 18 23" fill="none" xmlns="http://www.w3.org/2000/svg">
<path d="M16.8747 6.12515H12.3747L12.3735 1.62402L16.8747 6.12515Z" fill="white"/>
<path d="M9.13184 0.507812C9.38288 0.537463 9.61617 0.651329 9.79492 0.830078C9.97367 1.00883 10.0875 1.24212 10.1172 1.49316L10.125 1.625V6.125L10.1309 6.29395C10.1712 6.82953 10.4011 7.33344 10.7803 7.71387C11.1595 8.09431 11.6627 8.32613 12.1982 8.36816L12.375 8.375H16.875L17.0068 8.38281C17.2579 8.41246 17.4912 8.52633 17.6699 8.70508C17.8487 8.88383 17.9625 9.11712 17.9922 9.36816L18 9.5V19.625C18 20.4859 17.6707 21.3141 17.0801 21.9404C16.4896 22.5666 15.6824 22.9436 14.8232 22.9941L14.625 23H3.375C2.51414 23 1.68591 22.6707 1.05957 22.0801C0.4334 21.4896 0.0564164 20.6824 0.00585938 19.8232L0 19.625V3.875C-4.67026e-05 3.01414 0.329345 2.18591 0.919922 1.55957C1.51043 0.933401 2.31756 0.556418 3.17676 0.505859L3.375 0.5H9L9.13184 0.507812ZM5.03613 11.6709V18.4268C5.0361 18.6151 5.01498 18.7658 4.98047 18.8848L4.94141 18.9941C4.89951 19.0908 4.8477 19.161 4.78809 19.2129L4.72461 19.2588C4.64153 19.3096 4.5221 19.3466 4.3457 19.3467C4.17893 19.3466 4.05491 19.3148 3.96094 19.2656C3.86896 19.2131 3.79532 19.1396 3.7373 19.0371C3.68404 18.9349 3.6462 18.7975 3.6416 18.6113L3.63184 18.2061H0.899414L0.898438 18.6201C0.895251 19.2834 1.03548 19.871 1.35059 20.3545H1.35254C1.65805 20.8197 2.07424 21.1686 2.58984 21.3955L2.59277 21.3975C3.09745 21.6145 3.65244 21.7187 4.24902 21.7188C4.91723 21.7186 5.52362 21.5919 6.05566 21.3242L6.25 21.2188C6.69097 20.9589 7.04716 20.6086 7.31152 20.1709C7.62053 19.664 7.76653 19.0767 7.7666 18.4268V11.6709H5.03613ZM8.52734 11.6709V21.5947H12.166C13.1431 21.5947 14.0072 21.4007 14.7432 20.9971L14.7441 20.998C15.4829 20.5942 16.0506 20.0102 16.4434 19.2578L16.4453 19.2588C16.8411 18.5063 17.0293 17.6229 17.0293 16.624C17.0293 15.6279 16.8393 14.7478 16.4434 13.998H16.4453C16.0528 13.2491 15.487 12.6687 14.7539 12.2676H14.752C14.0193 11.8642 13.1609 11.671 12.1924 11.6709H8.52734ZM4.18262 19.7539L4.3457 19.7627C4.37373 19.7627 4.40171 19.7602 4.42871 19.7588C4.40188 19.7602 4.37453 19.7637 4.34668 19.7637C4.24501 19.7637 4.14992 19.7523 4.06055 19.7334C4.10024 19.7413 4.14069 19.7495 4.18262 19.7539ZM3.94824 19.7051C3.94273 19.7033 3.9371 19.702 3.93164 19.7002C3.93713 19.702 3.9427 19.7034 3.94824 19.7051ZM12.2949 19.5273L12.0859 19.5322C12.2027 19.5322 12.3156 19.5261 12.4248 19.5176C12.3821 19.5209 12.3388 19.5253 12.2949 19.5273ZM13.5195 19.2295C13.604 19.1853 13.6845 19.1367 13.7598 19.082C13.6848 19.1369 13.6049 19.1863 13.5205 19.2305C13.472 19.2556 13.4214 19.2788 13.3701 19.3008L13.5195 19.2295ZM5.32324 19.1592C5.30576 19.1996 5.28502 19.2372 5.26367 19.2734L5.32227 19.1592H5.32324ZM12.0898 14.1484C12.6104 14.1484 13.0186 14.2409 13.332 14.4033L13.4424 14.4658C13.6889 14.6209 13.8807 14.8454 14.0205 15.1504L14.0225 15.1514C14.1867 15.5044 14.2803 15.9886 14.2803 16.624C14.2803 17.1857 14.2085 17.6298 14.0801 17.9707L14.0225 18.1104L14.0205 18.1113C13.8809 18.4157 13.6871 18.6402 13.4375 18.7979L13.3271 18.8613C13.0138 19.0237 12.6062 19.1171 12.0859 19.1172H11.2803V14.1484H12.0898ZM7.35156 12.0859L5.45215 12.0869V18.4268C5.45215 18.4878 5.44808 18.5466 5.44336 18.6035L5.45117 18.4268V12.0859H7.35156ZM14.3008 18.4717C14.2973 18.4776 14.2936 18.4834 14.29 18.4893C14.2935 18.4834 14.2973 18.4776 14.3008 18.4717ZM13.0508 13.8516L13.2168 13.9033C13.1519 13.8806 13.0846 13.8609 13.0156 13.8428C13.0273 13.8458 13.0392 13.8484 13.0508 13.8516ZM12.7295 12.1094C12.7897 12.1146 12.8493 12.1199 12.9082 12.127C12.8493 12.1201 12.7897 12.1144 12.7295 12.1094ZM12.1924 12.0859L12.5293 12.0938C12.5656 12.0956 12.6018 12.099 12.6377 12.1016C12.4928 12.0916 12.3442 12.0869 12.1924 12.0869H8.94238V12.0859H12.1924Z" fill="white"/>
</svg>
