<svg width="11" height="11" viewBox="0 0 11 11" fill="none" xmlns="http://www.w3.org/2000/svg">
<path d="M3.93314 1.95092C4.25705 1.003 5.5668 0.974294 5.95085 1.86479L5.98335 1.95146L6.42047 3.22979C6.52065 3.52296 6.68253 3.79124 6.8952 4.01652C7.10788 4.24181 7.36639 4.41887 7.6533 4.53575L7.77085 4.57963L9.04918 5.01621C9.9971 5.34013 10.0258 6.64988 9.13585 7.03392L9.04918 7.06642L7.77085 7.50354C7.47758 7.60365 7.2092 7.76551 6.98381 7.97818C6.75843 8.19086 6.58129 8.44941 6.46435 8.73638L6.42047 8.85338L5.98389 10.1323C5.65997 11.0802 4.35022 11.1089 3.96672 10.2189L3.93314 10.1323L3.49655 8.85392C3.39644 8.56065 3.23459 8.29227 3.02191 8.06689C2.80924 7.8415 2.55069 7.66436 2.26372 7.54742L2.14672 7.50354L0.868387 7.06696C-0.0800715 6.74304 -0.10878 5.43329 0.78172 5.04979L0.868387 5.01621L2.14672 4.57963C2.43989 4.47945 2.70816 4.31757 2.93345 4.10489C3.15874 3.89222 3.33579 3.63371 3.45268 3.34679L3.49655 3.22979L3.93314 1.95092ZM9.29185 0.0832521C9.39318 0.0832518 9.49248 0.111678 9.57847 0.165299C9.66446 0.21892 9.73368 0.295587 9.77826 0.386585L9.80426 0.44996L9.99385 1.00571L10.5501 1.19529C10.6517 1.2298 10.7407 1.29367 10.8059 1.37882C10.8711 1.46397 10.9096 1.56656 10.9165 1.6736C10.9233 1.78063 10.8982 1.88729 10.8444 1.98005C10.7905 2.07282 10.7104 2.14751 10.6141 2.19467L10.5501 2.22067L9.99439 2.41025L9.8048 2.96654C9.77024 3.06807 9.70632 3.15705 9.62114 3.22221C9.53596 3.28737 9.43335 3.32577 9.32632 3.33256C9.21929 3.33935 9.11265 3.31421 9.01992 3.26033C8.92719 3.20645 8.85254 3.12626 8.80543 3.02992L8.77943 2.96654L8.58985 2.41079L8.03355 2.22121C7.932 2.18671 7.84298 2.12284 7.77776 2.03769C7.71255 1.95254 7.67408 1.84994 7.66724 1.74291C7.66039 1.63587 7.68548 1.52921 7.73931 1.43645C7.79315 1.34369 7.87331 1.26899 7.96964 1.22184L8.03355 1.19584L8.5893 1.00625L8.77889 0.44996C8.81541 0.342941 8.88451 0.250036 8.97651 0.184272C9.0685 0.118509 9.17877 0.0831841 9.29185 0.0832521Z" fill="#F9F9F9"/>
</svg>
