<svg width="12" height="12" viewBox="0 0 12 12" fill="none" xmlns="http://www.w3.org/2000/svg">
<path d="M4.189 2.35595C4.51291 1.40803 5.82266 1.37932 6.20671 2.26982L6.23921 2.35649L6.67633 3.63482C6.77651 3.92799 6.93839 4.19627 7.15106 4.42155C7.36373 4.64684 7.62225 4.8239 7.90916 4.94078L8.0267 4.98466L9.30504 5.42124C10.253 5.74516 10.2817 7.05491 9.39171 7.43895L9.30504 7.47145L8.0267 7.90857C7.73344 8.00868 7.46506 8.17054 7.23967 8.38321C7.01429 8.59589 6.83715 8.85444 6.7202 9.14141L6.67633 9.25841L6.23975 10.5373C5.91583 11.4852 4.60608 11.5139 4.22258 10.6239L4.189 10.5373L3.75241 9.25895C3.6523 8.96568 3.49045 8.6973 3.27777 8.47192C3.0651 8.24653 2.80655 8.06939 2.51958 7.95245L2.40258 7.90857L1.12425 7.47199C0.175788 7.14807 0.14708 5.83832 1.03758 5.45482L1.12425 5.42124L2.40258 4.98466C2.69575 4.88448 2.96402 4.7226 3.18931 4.50992C3.4146 4.29725 3.59165 4.03874 3.70854 3.75182L3.75241 3.63482L4.189 2.35595ZM9.54771 0.488281C9.64904 0.488281 9.74834 0.516707 9.83433 0.570328C9.92031 0.62395 9.98954 0.700616 10.0341 0.791615L10.0601 0.85499L10.2497 1.41074L10.806 1.60032C10.9075 1.63482 10.9966 1.6987 11.0618 1.78385C11.127 1.869 11.1655 1.97159 11.1723 2.07863C11.1792 2.18566 11.1541 2.29232 11.1002 2.38508C11.0464 2.47785 10.9662 2.55254 10.8699 2.5997L10.806 2.6257L10.2502 2.81528L10.0607 3.37157C10.0261 3.4731 9.96218 3.56208 9.877 3.62724C9.79182 3.69239 9.68921 3.7308 9.58218 3.73759C9.47515 3.74438 9.36851 3.71924 9.27578 3.66536C9.18305 3.61148 9.1084 3.53129 9.06129 3.43495L9.03529 3.37157L8.84571 2.81582L8.28941 2.62624C8.18786 2.59174 8.09884 2.52786 8.03362 2.44271C7.96841 2.35756 7.92994 2.25497 7.9231 2.14794C7.91625 2.0409 7.94134 1.93424 7.99517 1.84148C8.04901 1.74872 8.12917 1.67402 8.2255 1.62686L8.28941 1.60086L8.84516 1.41128L9.03475 0.85499C9.07127 0.74797 9.14037 0.655065 9.23237 0.589301C9.32436 0.523538 9.43462 0.488213 9.54771 0.488281Z" fill="#00434E"/>
</svg>
