<svg width="18" height="17" viewBox="0 0 18 17" fill="none" xmlns="http://www.w3.org/2000/svg">
<rect x="0.958984" y="0.755859" width="16.1299" height="16.1299" rx="4" fill="#F05052"/>
<path d="M8.27057 10.7625V10.7112C8.27628 10.1664 8.33333 9.73284 8.44172 9.41053C8.55011 9.08821 8.70413 8.82722 8.9038 8.62755C9.10346 8.42789 9.34306 8.24391 9.62259 8.07562C9.79088 7.97293 9.94206 7.85171 10.0761 7.71194C10.2102 7.56932 10.3157 7.40531 10.3927 7.21991C10.4726 7.03451 10.5125 6.82914 10.5125 6.6038C10.5125 6.32427 10.4469 6.08182 10.3157 5.87645C10.1845 5.67108 10.0091 5.51277 9.78946 5.40153C9.56983 5.29029 9.32595 5.23466 9.05783 5.23466C8.82393 5.23466 8.5986 5.28315 8.38182 5.38013C8.16504 5.47712 7.98391 5.62972 7.83844 5.83794C7.69297 6.04616 7.60883 6.31856 7.58601 6.65514H6.50781C6.53063 6.17024 6.65614 5.75522 6.88432 5.41008C7.11537 5.06495 7.41914 4.8011 7.79566 4.61855C8.17502 4.436 8.59574 4.34473 9.05783 4.34473C9.55984 4.34473 9.99625 4.44456 10.3671 4.64422C10.7407 4.84389 11.0288 5.11772 11.2313 5.46571C11.4367 5.81369 11.5394 6.21017 11.5394 6.65514C11.5394 6.9689 11.4909 7.25271 11.3939 7.50657C11.2998 7.76043 11.1629 7.9872 10.9832 8.18686C10.8063 8.38653 10.5924 8.56337 10.3414 8.7174C10.0904 8.87428 9.88929 9.03972 9.73812 9.21371C9.58694 9.38485 9.47712 9.5888 9.40867 9.82554C9.34021 10.0623 9.30313 10.3575 9.29742 10.7112V10.7625H8.27057ZM8.81823 13.2954C8.60715 13.2954 8.42603 13.2199 8.27485 13.0687C8.12368 12.9175 8.04809 12.7364 8.04809 12.5253C8.04809 12.3142 8.12368 12.1331 8.27485 11.9819C8.42603 11.8308 8.60715 11.7552 8.81823 11.7552C9.0293 11.7552 9.21043 11.8308 9.3616 11.9819C9.51278 12.1331 9.58837 12.3142 9.58837 12.5253C9.58837 12.6651 9.55271 12.7934 9.4814 12.9104C9.41295 13.0273 9.32024 13.1215 9.2033 13.1928C9.0892 13.2612 8.96085 13.2954 8.81823 13.2954Z" fill="white"/>
</svg>
