<svg width="23" height="21" viewBox="0 0 23 21" fill="none" xmlns="http://www.w3.org/2000/svg">
<path d="M18.1 0C19.267 0 20.3861 0.465799 21.2113 1.29493C22.0364 2.12405 22.5 3.24859 22.5 4.42116V13.2635C22.5 14.436 22.0364 15.5606 21.2113 16.3897C20.3861 17.2188 19.267 17.6846 18.1 17.6846H12.9036L7.6654 20.8424C7.50765 20.9376 7.32867 20.9914 7.14485 20.9991C6.96103 21.0067 6.77824 20.9679 6.6132 20.8862C6.44817 20.8045 6.30617 20.6825 6.20019 20.5314C6.09422 20.3803 6.02766 20.2049 6.0066 20.0212L6 19.8952V17.6846H4.9C3.77113 17.6846 2.68545 17.2487 1.86751 16.4669C1.04957 15.6851 0.561943 14.6174 0.5055 13.4845L0.5 13.2635V4.42116C0.5 3.24859 0.96357 2.12405 1.78873 1.29493C2.61389 0.465799 3.73305 0 4.9 0H18.1ZM13.7 9.9476H7.1C6.80826 9.9476 6.52847 10.0641 6.32218 10.2713C6.11589 10.4786 6 10.7598 6 11.0529C6 11.346 6.11589 11.6272 6.32218 11.8344C6.52847 12.0417 6.80826 12.1582 7.1 12.1582H13.7C13.9917 12.1582 14.2715 12.0417 14.4778 11.8344C14.6841 11.6272 14.8 11.346 14.8 11.0529C14.8 10.7598 14.6841 10.4786 14.4778 10.2713C14.2715 10.0641 13.9917 9.9476 13.7 9.9476ZM15.9 5.52645H7.1C6.80826 5.52645 6.52847 5.6429 6.32218 5.85018C6.11589 6.05746 6 6.33859 6 6.63174C6 6.92488 6.11589 7.20601 6.32218 7.41329C6.52847 7.62057 6.80826 7.73702 7.1 7.73702H15.9C16.1917 7.73702 16.4715 7.62057 16.6778 7.41329C16.8841 7.20601 17 6.92488 17 6.63174C17 6.33859 16.8841 6.05746 16.6778 5.85018C16.4715 5.6429 16.1917 5.52645 15.9 5.52645Z" fill="#45B6FC"/>
</svg>
