<svg width="22" height="18" viewBox="0 0 22 18" fill="none" xmlns="http://www.w3.org/2000/svg">
<path d="M6.14551 11.5713C6.14559 11.9263 6.45192 12.2139 6.8291 12.2139C7.20609 12.2137 7.51164 11.9261 7.51172 11.5713V10.9287H14.3447V11.5713C14.3448 11.9263 14.6511 12.2139 15.0283 12.2139C15.4053 12.2137 15.7109 11.9261 15.7109 11.5713V10.9287H21.8574V15C21.8574 15.7955 21.5121 16.5585 20.8975 17.1211C20.2827 17.6836 19.4485 17.9999 18.5791 18H3.27832C2.40893 17.9999 1.57472 17.6836 0.959961 17.1211C0.345333 16.5585 0 15.7955 0 15V10.9287H6.14551V11.5713ZM12.0215 0C12.891 0 13.725 0.316297 14.3398 0.878906C14.9546 1.44151 15.2998 2.20439 15.2998 3V4H18.5791C19.4485 4.00009 20.2827 4.31638 20.8975 4.87891C21.5121 5.44148 21.8574 6.2045 21.8574 7V9.64258H0V7C0 6.2045 0.345333 5.44148 0.959961 4.87891C1.57472 4.31638 2.40893 4.00009 3.27832 4H6.55762V3C6.55762 2.20439 6.90279 1.44151 7.51758 0.878906C8.13243 0.316297 8.96641 0 9.83594 0H12.0215ZM9.83594 2C9.54618 2 9.26841 2.10553 9.06348 2.29297C8.85853 2.48051 8.74316 2.73478 8.74316 3V4H13.1143V3C13.1143 2.73478 12.9989 2.48051 12.7939 2.29297C12.589 2.10553 12.3112 2 12.0215 2H9.83594Z" fill="#10B981"/>
</svg>
