<svg width="22" height="24" viewBox="0 0 22 24" fill="none" xmlns="http://www.w3.org/2000/svg">
<path fill-rule="evenodd" clip-rule="evenodd" d="M11.1754 16.8953L11.1698 16.8963L11.1341 16.9139L11.1241 16.9159L11.117 16.9139L11.0813 16.8963C11.076 16.8946 11.0719 16.8955 11.0693 16.8988L11.0673 16.9039L11.0587 17.1191L11.0612 17.1291L11.0663 17.1357L11.1185 17.1729L11.1261 17.1749L11.1321 17.1729L11.1844 17.1357L11.1905 17.1276L11.1925 17.1191L11.1839 16.9044C11.1826 16.899 11.1797 16.896 11.1754 16.8953ZM11.3086 16.8385L11.3021 16.8395L11.2091 16.8863L11.204 16.8913L11.2025 16.8968L11.2116 17.1131L11.2141 17.1191L11.2181 17.1226L11.3192 17.1694C11.3256 17.1711 11.3304 17.1697 11.3338 17.1654L11.3358 17.1583L11.3187 16.8495C11.317 16.8435 11.3137 16.8398 11.3086 16.8385ZM10.9491 16.8395C10.9469 16.8381 10.9442 16.8377 10.9417 16.8383C10.9392 16.8388 10.9369 16.8404 10.9355 16.8425L10.9325 16.8495L10.9154 17.1583C10.9157 17.1643 10.9186 17.1684 10.9239 17.1704L10.9315 17.1694L11.0326 17.1226L11.0376 17.1186L11.0396 17.1131L11.0481 16.8968L11.0466 16.8908L11.0416 16.8858L10.9491 16.8395Z" fill="#F9F9F9"/>
<path fill-rule="evenodd" clip-rule="evenodd" d="M7.35837 9.55578C7.35837 9.28904 7.46434 9.03323 7.65295 8.84462C7.84156 8.656 8.09738 8.55004 8.36412 8.55004H13.3928C13.6596 8.55004 13.9154 8.656 14.104 8.84462C14.2926 9.03323 14.3986 9.28904 14.3986 9.55578V10.4911C14.3985 10.9051 14.2963 11.3126 14.1009 11.6775C13.9056 12.0424 13.6231 12.3535 13.2787 12.5831L11.7851 13.5788L13.2787 14.5744C13.6231 14.804 13.9056 15.1151 14.1009 15.48C14.2963 15.8449 14.3985 16.2524 14.3986 16.6664V17.6017C14.3986 17.8685 14.2926 18.1243 14.104 18.3129C13.9154 18.5015 13.6596 18.6075 13.3928 18.6075H8.36412C8.09738 18.6075 7.84156 18.5015 7.65295 18.3129C7.46434 18.1243 7.35837 17.8685 7.35837 17.6017V16.6664C7.35837 16.2525 7.46053 15.845 7.65581 15.4801C7.85108 15.1151 8.13342 14.8041 8.47777 14.5744L9.9723 13.5788L8.47877 12.5831C8.13424 12.3536 7.8517 12.0425 7.65625 11.6776C7.4608 11.3127 7.35848 10.9051 7.35837 10.4911V9.55578Z" fill="#F9F9F9"/>
<path d="M13.3813 4.50734C8.65593 3.17479 3.74548 5.92494 2.41293 10.6503C1.08037 15.3756 3.83053 20.2861 8.55587 21.6186L7.99228 23.6171C2.16356 21.9734 -1.2293 15.9154 0.414403 10.0867C2.05811 4.25798 8.11614 0.86511 13.9449 2.50882L13.3813 4.50734Z" fill="#F9F9F9"/>
<path d="M18.8901 17.1008C18.6306 17.6118 18.8344 18.237 19.3454 18.4966C19.8563 18.7562 20.4814 18.5523 20.7411 18.0413L20.9697 17.5619C21.188 17.0751 21.3739 16.567 21.5227 16.0393C21.7211 15.3357 21.8462 14.6276 21.9023 13.9238L19.8326 13.7587C19.7872 14.3284 19.6857 14.903 19.5242 15.4757C19.3627 16.0484 19.149 16.5913 18.8901 17.1008ZM20.95 12.8064C20.3787 12.7609 19.8783 13.1874 19.8326 13.7587L21.9023 13.9238C21.9478 13.3525 21.5214 12.852 20.95 12.8064ZM17.8448 5.82467C17.4358 6.17339 17.3644 6.7712 17.6637 7.20397L17.7279 7.28801C18.3905 8.0651 18.9155 8.95111 19.2787 9.90383L19.4242 10.3166C19.6018 10.8615 20.188 11.1591 20.733 10.9815C21.2779 10.8038 21.5755 10.2176 21.3978 9.67271C21.0077 8.47607 20.4146 7.35449 19.6472 6.35951L19.3082 5.94156C18.9363 5.50539 18.281 5.45288 17.8448 5.82467ZM13.7149 21.5186C13.17 21.6963 12.8724 22.2824 13.05 22.8274C13.2277 23.3723 13.8139 23.6699 14.3588 23.4922L14.8663 23.313C16.0405 22.8656 17.1322 22.2191 18.09 21.4026L18.1675 21.3292C18.5312 20.9492 18.5554 20.3482 18.2069 19.9392C17.835 19.5031 17.1797 19.4506 16.7435 19.8224C15.8554 20.5796 14.8246 21.1569 13.7149 21.5186ZM13.3813 4.50734L13.8051 4.63784C14.084 4.73147 14.3551 4.83797 14.6183 4.95599L15.0064 5.14146C15.5174 5.40096 16.1425 5.19711 16.4022 4.68618C16.6618 4.17521 16.4578 3.55014 15.9469 3.29043C15.3175 2.97056 14.6484 2.70722 13.9449 2.50882L13.3813 4.50734ZM10.2729 21.927L10.1077 23.9967C10.6791 24.0422 11.1796 23.6158 11.2251 23.0444C11.2707 22.4731 10.8441 21.9727 10.2729 21.927ZM7.99228 23.6171L8.52119 23.7516C9.04996 23.8731 9.58 23.9546 10.1077 23.9967L10.2729 21.927C9.70317 21.8816 9.12856 21.7801 8.55587 21.6186L7.99228 23.6171Z" fill="#F9F9F9"/>
<path d="M17.2971 4.00161C17.6796 4.48909 17.4684 5.20825 16.883 5.4114L12.4926 6.93497C11.7993 7.17557 11.124 6.53211 11.3308 5.828L12.8522 0.648534C13.0591 -0.0555759 13.9751 -0.231592 14.4281 0.345725L17.2971 4.00161Z" fill="#F9F9F9"/>
</svg>
