<svg width="23" height="18" viewBox="0 0 23 18" fill="none" xmlns="http://www.w3.org/2000/svg">
<path fill-rule="evenodd" clip-rule="evenodd" d="M17.4162 15.5548V8.51185H14.3071C12.9893 8.75221 11.6715 9.48093 10.3537 10.326H7.93896C6.84579 10.3928 6.273 11.5221 7.33622 12.2642C8.1823 12.8975 9.29981 12.8613 10.4454 12.7563C11.2353 12.7163 11.269 13.7979 10.4454 13.8017C10.159 13.8246 9.84826 13.7559 9.57684 13.7559C8.14674 13.754 6.9712 13.4755 6.25054 12.3252L5.88926 11.4649L2.29715 9.65071C0.500159 9.0479 -0.778326 10.9632 0.546956 12.2966C3.14885 14.2252 5.81626 15.8124 8.54544 17.0943C10.5278 18.3228 12.5101 18.2808 14.4905 17.0943L17.4162 15.5548ZM6.43398 3.03313V0H11.1455V3.04839H13.4235L8.77381 8.61868L4.10912 3.03313H6.43398ZM23 7.83464H18.3522V16.2626H23V7.83464Z" fill="white"/>
</svg>
