<svg width="19" height="16" viewBox="0 0 19 16" fill="none" xmlns="http://www.w3.org/2000/svg">
<path d="M10.7452 0.0032608C9.67785 -0.027283 8.61519 0.157009 7.62013 0.545234C6.62507 0.933459 5.71783 1.51773 4.95208 2.26347C4.18634 3.00922 3.57766 3.90129 3.16204 4.8869C2.74642 5.87251 2.53232 6.93164 2.5324 8.00163H0.944819C0.545707 8.00163 0.350585 8.48153 0.634398 8.75703L3.1089 11.2365C3.28628 11.4143 3.56122 11.4143 3.73861 11.2365L6.22197 8.75703C6.48805 8.48153 6.29293 8.00163 5.89381 8.00163H4.30623C4.30623 4.54456 7.14437 1.72735 10.6033 1.78068C13.8938 1.82511 16.6698 4.60677 16.7231 7.91276C16.7763 11.3876 13.9736 14.2226 10.5146 14.2226C9.10445 14.2226 7.80955 13.7516 6.76299 12.9517C6.40823 12.6851 5.91155 12.7118 5.60113 13.0317C5.21976 13.4139 5.25523 14.0448 5.68095 14.3648C7.06935 15.4268 8.76796 16.0014 10.5146 16C15.0024 16 18.6211 12.2941 18.4969 7.77945C18.3816 3.60253 14.9049 0.118793 10.7452 0.0032608Z" fill="#5069E7"/>
</svg>
