<svg width="16" height="16" viewBox="0 0 16 16" fill="none" xmlns="http://www.w3.org/2000/svg">
<g clip-path="url(#clip0_2827_45055)">
<mask id="mask0_2827_45055" style="mask-type:luminance" maskUnits="userSpaceOnUse" x="0" y="-1" width="16" height="17">
<path d="M0 -0.000488281H16V15.9995H0V-0.000488281Z" fill="white"/>
<path fill-rule="evenodd" clip-rule="evenodd" d="M7.99998 4.30743C7.02072 4.30743 6.08157 4.69644 5.38913 5.38888C4.69668 6.08132 4.30767 7.02048 4.30767 7.99974C4.30767 8.979 4.69668 9.91815 5.38913 10.6106C6.08157 11.303 7.02072 11.692 7.99998 11.692C8.97924 11.692 9.9184 11.303 10.6108 10.6106C11.3033 9.91815 11.6923 8.979 11.6923 7.99974C11.6923 7.02048 11.3033 6.08132 10.6108 5.38888C9.9184 4.69644 8.97924 4.30743 7.99998 4.30743ZM3.0769 7.99974C3.0769 6.69406 3.59558 5.44185 4.51884 4.5186C5.4421 3.59534 6.6943 3.07666 7.99998 3.07666C9.30566 3.07666 10.5579 3.59534 11.4811 4.5186C12.4044 5.44185 12.9231 6.69406 12.9231 7.99974C12.9231 9.30542 12.4044 10.5576 11.4811 11.4809C10.5579 12.4041 9.30566 12.9228 7.99998 12.9228C6.6943 12.9228 5.4421 12.4041 4.51884 11.4809C3.59558 10.5576 3.0769 9.30542 3.0769 7.99974Z" fill="black"/>
<path fill-rule="evenodd" clip-rule="evenodd" d="M11.4812 4.51856C11.5965 4.63396 11.6613 4.79045 11.6613 4.95363C11.6613 5.11681 11.5965 5.27331 11.4812 5.38871L5.38885 11.481C5.27278 11.5931 5.11734 11.6551 4.95598 11.6537C4.79463 11.6523 4.64029 11.5876 4.52619 11.4735C4.41209 11.3594 4.34737 11.2051 4.34597 11.0437C4.34457 10.8824 4.4066 10.7269 4.51869 10.6109L10.611 4.51856C10.7264 4.40319 10.8829 4.33838 11.0461 4.33838C11.2093 4.33838 11.3658 4.40319 11.4812 4.51856Z" fill="black"/>
</mask>
<g mask="url(#mask0_2827_45055)">
<path d="M8 15.9995C12.4183 15.9995 16 12.4178 16 7.99951C16 3.58123 12.4183 -0.000488281 8 -0.000488281C3.58172 -0.000488281 0 3.58123 0 7.99951C0 12.4178 3.58172 15.9995 8 15.9995Z" fill="#EA5455"/>
</g>
</g>
<defs>
<clipPath id="clip0_2827_45055">
<rect width="16" height="16" fill="white" transform="translate(0 -0.000488281)"/>
</clipPath>
</defs>
</svg>
