<svg width="18" height="18" viewBox="0 0 18 18" fill="none" xmlns="http://www.w3.org/2000/svg">
<path d="M11.834 15.375V13.9583C11.834 12.6224 11.834 11.9552 11.4189 11.5401C11.0038 11.125 10.3366 11.125 9.00065 11.125H8.29232C6.9564 11.125 6.28915 11.125 5.87407 11.5401C5.45898 11.9552 5.45898 12.6224 5.45898 13.9583V15.375" stroke="#5069E7" stroke-width="1.5"/>
<path d="M5.45898 6.16666H9.00065" stroke="#5069E7" stroke-width="1.5" stroke-linecap="round"/>
<path d="M2.625 6.875C2.625 4.87183 2.625 3.86954 3.24762 3.24762C3.86954 2.625 4.87183 2.625 6.875 2.625H11.9552C12.2442 2.625 12.3894 2.625 12.519 2.67883C12.6486 2.73267 12.752 2.83467 12.9568 3.04008L14.9599 5.04325C15.1653 5.24867 15.2673 5.35067 15.3212 5.481C15.375 5.61062 15.375 5.75583 15.375 6.04483V11.125C15.375 13.1282 15.375 14.1305 14.7524 14.7524C14.1305 15.375 13.1282 15.375 11.125 15.375H6.875C4.87183 15.375 3.86954 15.375 3.24762 14.7524C2.625 14.1305 2.625 13.1282 2.625 11.125V6.875Z" stroke="#5069E7" stroke-width="1.5"/>
</svg>
