<svg width="22" height="18" viewBox="0 0 22 18" fill="none" xmlns="http://www.w3.org/2000/svg">
<path d="M15.9624 6.46876C15.5029 6.46876 15.1125 6.30488 14.7913 5.97713C14.47 5.64938 14.309 5.25076 14.3083 4.78126C14.3075 4.31176 14.4685 3.91351 14.7913 3.58651C15.114 3.25951 15.5044 3.09526 15.9624 3.09376C16.4204 3.09226 16.8112 3.25651 17.1346 3.58651C17.4581 3.91651 17.6187 4.31476 17.6165 4.78126C17.6143 5.24776 17.4537 5.64638 17.1346 5.97713C16.8156 6.30788 16.4248 6.47176 15.9624 6.46876ZM6.03759 6.46876C5.57811 6.46876 5.18774 6.30488 4.86647 5.97713C4.5452 5.64938 4.38419 5.25076 4.38346 4.78126C4.38272 4.31176 4.54373 3.91351 4.86647 3.58651C5.18921 3.25951 5.57958 3.09526 6.03759 3.09376C6.4956 3.09226 6.88635 3.25651 7.20982 3.58651C7.5333 3.91651 7.69393 4.31476 7.69173 4.78126C7.68952 5.24776 7.52889 5.64638 7.20982 5.97713C6.89076 6.30788 6.50001 6.47176 6.03759 6.46876ZM11 9.5625C10.5405 9.5625 10.1501 9.39863 9.82887 9.07088C9.5076 8.74313 9.3466 8.34451 9.34586 7.87501C9.34513 7.40551 9.50613 7.00726 9.82887 6.68026C10.1516 6.35326 10.542 6.18901 11 6.18751C11.458 6.18601 11.8488 6.35026 12.1722 6.68026C12.4957 7.01026 12.6563 7.40851 12.6541 7.87501C12.6519 8.34151 12.4913 8.74013 12.1722 9.07088C11.8532 9.40163 11.4624 9.5655 11 9.5625ZM11 3.37501C10.5405 3.37501 10.1501 3.21113 9.82887 2.88338C9.5076 2.55563 9.3466 2.15701 9.34586 1.68751C9.34513 1.21801 9.50613 0.81976 9.82887 0.49276C10.1516 0.16576 10.542 0.00151018 11 1.0181e-05C11.458 -0.00148982 11.8488 0.16276 12.1722 0.49276C12.4957 0.82276 12.6563 1.22101 12.6541 1.68751C12.6519 2.15401 12.4913 2.55263 12.1722 2.88338C11.8532 3.21413 11.4624 3.37801 11 3.37501ZM11 18C10.6324 18 10.2604 17.9719 9.88401 17.9156C9.5076 17.8594 9.14443 17.7844 8.79448 17.6906V13.6688C8.79448 13.0125 9.01062 12.4455 9.4429 11.9678C9.87519 11.49 10.3942 11.2508 11 11.25C11.6058 11.2493 12.1252 11.4885 12.5582 11.9678C12.9912 12.447 13.207 13.014 13.2055 13.6688V17.6906C12.8563 17.7844 12.4935 17.8594 12.1171 17.9156C11.7407 17.9719 11.3683 18 11 18ZM7.14035 17.1C6.77276 16.95 6.41915 16.7812 6.0795 16.5938C5.73985 16.4062 5.41343 16.2 5.10025 15.975C4.58563 15.6 4.17687 15.1125 3.87398 14.5125C3.57109 13.9125 3.41928 13.275 3.41855 12.6C3.41855 12.1125 3.36819 11.658 3.26747 11.2365C3.16675 10.815 2.98737 10.4164 2.72932 10.0406C2.54553 9.79688 2.2011 9.42675 1.69604 8.93025C1.19098 8.43375 0.726716 7.9695 0.303258 7.53751C0.101086 7.33126 0 7.06876 0 6.75001C0 6.43126 0.101086 6.16876 0.303258 5.96251C0.50543 5.75626 0.76274 5.65313 1.07519 5.65313C1.38764 5.65313 1.64495 5.75626 1.84712 5.96251L6.06516 10.0406C6.43275 10.3781 6.70402 10.7768 6.87899 11.2365C7.05397 11.6963 7.14108 12.1695 7.14035 12.6563V17.1ZM14.8596 17.1V12.6563C14.8596 12.1688 14.9515 11.6906 15.1353 11.2219C15.3191 10.7531 15.5856 10.3594 15.9348 10.0406L20.1529 5.96251C20.3734 5.75626 20.6355 5.65313 20.9391 5.65313C21.2428 5.65313 21.4953 5.75626 21.6967 5.96251C21.8982 6.16876 21.9993 6.43126 22 6.75001C22.0007 7.06876 21.8996 7.33126 21.6967 7.53751C21.274 7.96875 20.8098 8.42813 20.304 8.91563C19.7982 9.40313 19.4537 9.77813 19.2707 10.0406C19.0134 10.4156 18.834 10.8143 18.7325 11.2365C18.6311 11.6588 18.5807 12.1133 18.5814 12.6C18.5814 13.275 18.4296 13.9174 18.126 14.5271C17.8224 15.1369 17.4044 15.6289 16.8722 16.0031C16.5781 16.2094 16.2612 16.4062 15.9216 16.5938C15.582 16.7812 15.228 16.95 14.8596 17.1Z" fill="#17A2B8"/>
</svg>
