<svg width="18" height="17" viewBox="0 0 18 17" fill="none" xmlns="http://www.w3.org/2000/svg">
<rect x="0.958984" y="0.693359" width="16.1299" height="16.1299" rx="4" fill="#00B767"/>
<path d="M12.1805 6.01777C12.2993 5.87395 12.4696 5.78218 12.6551 5.76201C12.8405 5.74184 13.0265 5.79485 13.1735 5.90977C13.2457 5.96566 13.3059 6.03545 13.3507 6.11503C13.3954 6.1946 13.4237 6.28233 13.434 6.37304C13.4442 6.46374 13.4362 6.55559 13.4104 6.64314C13.3845 6.73069 13.3414 6.81217 13.2835 6.88277L9.5235 11.5028C9.46058 11.5791 9.3825 11.6415 9.29419 11.6862C9.20589 11.7308 9.1093 11.7566 9.01051 11.7619C8.91173 11.7673 8.81291 11.7521 8.7203 11.7173C8.6277 11.6825 8.54332 11.6288 8.4725 11.5598L5.6525 8.78977L5.6035 8.73777C5.3775 8.46577 5.3935 8.06477 5.6525 7.81077C5.9115 7.55677 6.3205 7.54077 6.5975 7.76277L6.6505 7.81077L8.9205 10.0308L12.1905 6.02077L12.1805 6.01777Z" fill="white"/>
</svg>
