<svg width="20" height="20" viewBox="0 0 20 20" fill="none" xmlns="http://www.w3.org/2000/svg">
<path d="M17.6897 0H14.9148C14.1485 0 13.5273 0.621185 13.5273 1.38746V4.16237C13.5273 4.92864 14.1485 5.54982 14.9148 5.54982H17.6897C18.456 5.54982 19.0772 4.92864 19.0772 4.16237V1.38746C19.0772 0.621185 18.456 0 17.6897 0Z" fill="#6C757D"/>
<path d="M4.16237 6.76367H1.38746C0.621185 6.76367 0 7.38486 0 8.15113V10.926C0 11.6923 0.621185 12.3135 1.38746 12.3135H4.16237C4.92864 12.3135 5.54982 11.6923 5.54982 10.926V8.15113C5.54982 7.38486 4.92864 6.76367 4.16237 6.76367Z" fill="#6C757D"/>
<path d="M4.16237 13.5273H1.38746C0.621185 13.5273 0 14.1485 0 14.9148V17.6897C0 18.456 0.621185 19.0772 1.38746 19.0772H4.16237C4.92864 19.0772 5.54982 18.456 5.54982 17.6897V14.9148C5.54982 14.1485 4.92864 13.5273 4.16237 13.5273Z" fill="#6C757D"/>
<path d="M10.926 13.5273H8.15113C7.38486 13.5273 6.76367 14.1485 6.76367 14.9148V17.6897C6.76367 18.456 7.38486 19.0772 8.15113 19.0772H10.926C11.6923 19.0772 12.3135 18.456 12.3135 17.6897V14.9148C12.3135 14.1485 11.6923 13.5273 10.926 13.5273Z" fill="#6C757D"/>
<path d="M10.926 6.76367H8.15113C7.38486 6.76367 6.76367 7.38486 6.76367 8.15113V10.926C6.76367 11.6923 7.38486 12.3135 8.15113 12.3135H10.926C11.6923 12.3135 12.3135 11.6923 12.3135 10.926V8.15113C12.3135 7.38486 11.6923 6.76367 10.926 6.76367Z" fill="#6C757D"/>
<path d="M17.6897 6.76367H14.9148C14.1485 6.76367 13.5273 7.38486 13.5273 8.15113V10.926C13.5273 11.6923 14.1485 12.3135 14.9148 12.3135H17.6897C18.456 12.3135 19.0772 11.6923 19.0772 10.926V8.15113C19.0772 7.38486 18.456 6.76367 17.6897 6.76367Z" fill="#6C757D"/>
<path d="M17.6897 13.5273H14.9148C14.1485 13.5273 13.5273 14.1485 13.5273 14.9148V17.6897C13.5273 18.456 14.1485 19.0772 14.9148 19.0772H17.6897C18.456 19.0772 19.0772 18.456 19.0772 17.6897V14.9148C19.0772 14.1485 18.456 13.5273 17.6897 13.5273Z" fill="#6C757D"/>
<path d="M4.16237 0H1.38746C0.621185 0 0 0.621185 0 1.38746V4.16237C0 4.92864 0.621185 5.54982 1.38746 5.54982H4.16237C4.92864 5.54982 5.54982 4.92864 5.54982 4.16237V1.38746C5.54982 0.621185 4.92864 0 4.16237 0Z" fill="#6C757D"/>
<path d="M10.926 0H8.15113C7.38486 0 6.76367 0.621185 6.76367 1.38746V4.16237C6.76367 4.92864 7.38486 5.54982 8.15113 5.54982H10.926C11.6923 5.54982 12.3135 4.92864 12.3135 4.16237V1.38746C12.3135 0.621185 11.6923 0 10.926 0Z" fill="#6C757D"/>
</svg>
