<svg width="14" height="14" viewBox="0 0 14 14" fill="none" xmlns="http://www.w3.org/2000/svg">
<path d="M0 7.5V12.5C0 13.327 0.673 14 1.5 14H3V6H1.5C0.673 6 0 6.673 0 7.5ZM13.571 5.815C13.3862 5.56104 13.1436 5.35468 12.8634 5.21297C12.5831 5.07126 12.2731 4.99826 11.959 5H8.526L8.99 2.68C9.05511 2.35496 9.04727 2.01951 8.96703 1.69786C8.88679 1.37621 8.73616 1.07638 8.526 0.820004C8.3164 0.563184 8.05218 0.356323 7.75257 0.214475C7.45296 0.0726267 7.12549 -0.000640805 6.794 4.22226e-06C6.35 4.22226e-06 5.955 0.298004 5.843 0.693004L5.379 1.979C5.01659 2.98117 4.55497 3.94462 4.001 4.855V14H10.398C10.8247 14.0016 11.2405 13.8659 11.5843 13.6131C11.928 13.3603 12.1814 13.0038 12.307 12.596L13.869 7.596C13.9641 7.29678 13.9867 6.97922 13.9349 6.66955C13.883 6.35988 13.7583 6.06698 13.571 5.815Z" fill="#00B768"/>
</svg>
