<svg width="14" height="14" viewBox="0 0 14 14" fill="none" xmlns="http://www.w3.org/2000/svg">
<path d="M13.9619 6.5L13.9619 1.5C13.9619 0.672997 13.2889 -3.87353e-06 12.4619 -3.94583e-06L10.9619 -4.07697e-06L10.9619 8L12.4619 8C13.2889 8 13.9619 7.327 13.9619 6.5ZM0.390914 8.18499C0.575709 8.43896 0.818268 8.64532 1.09856 8.78703C1.37886 8.92874 1.68884 9.00174 2.00291 8.99999L5.43591 8.99999L4.97191 11.32C4.9068 11.645 4.91465 11.9805 4.99489 12.3021C5.07513 12.6238 5.22576 12.9236 5.43591 13.18C5.64551 13.4368 5.90973 13.6437 6.20934 13.7855C6.50895 13.9274 6.83642 14.0006 7.16791 14C7.61191 14 8.00691 13.702 8.11891 13.307L8.58291 12.021C8.94532 11.0188 9.40695 10.0554 9.96091 9.145L9.96092 -4.16448e-06L3.56392 -4.72372e-06C3.13724 -0.00155544 2.72137 0.134071 2.37765 0.386867C2.03393 0.639662 1.78056 0.99624 1.65492 1.404L0.0929143 6.40399C-0.00218137 6.70322 -0.024752 7.02077 0.027062 7.33044C0.0788761 7.64011 0.203591 7.93302 0.390914 8.18499Z" fill="#F05052"/>
</svg>
